<?xml version="1.0" encoding="utf-8"?>
<!-- Generator: Adobe Illustrator 15.0.2, SVG Export Plug-In . SVG Version: 6.00 Build 0)  -->
<!DOCTYPE svg PUBLIC "-//W3C//DTD SVG 1.1//EN" "http://www.w3.org/Graphics/SVG/1.1/DTD/svg11.dtd">
<svg version="1.1" id="Calque_1" xmlns="http://www.w3.org/2000/svg" xmlns:xlink="http://www.w3.org/1999/xlink" x="0px" y="0px"
	 width="32px" height="32px" viewBox="0 0 32 32" enable-background="new 0 0 32 32" xml:space="preserve">
<rect x="-4" y="-100" fill="#1A171B" width="40" height="40"/>
<linearGradient id="SVGID_1_" gradientUnits="userSpaceOnUse" x1="347.9004" y1="121.1006" x2="335.3002" y2="108.5004">
	<stop  offset="0" style="stop-color:#A10D59"/>
	<stop  offset="0.9879" style="stop-color:#39A9DC"/>
</linearGradient>
<polygon fill="url(#SVGID_1_)" points="340,103.8 340,123 346,123 346,109.4 "/>
<linearGradient id="SVGID_2_" gradientUnits="userSpaceOnUse" x1="305.0859" y1="26.9146" x2="290.7581" y2="12.5867">
	<stop  offset="0" style="stop-color:#A10D59"/>
	<stop  offset="0.9879" style="stop-color:#39A9DC"/>
</linearGradient>
<path fill="url(#SVGID_2_)" d="M298,21V8h-1c-2.209,0-4,1.791-4,4v13c0,2.209,1.791,4,4,4h2h4v-8H298z"/>
<linearGradient id="SVGID_3_" gradientUnits="userSpaceOnUse" x1="258.0005" y1="77.0005" x2="247.0003" y2="66.0003">
	<stop  offset="0" style="stop-color:#A10D59"/>
	<stop  offset="0.9879" style="stop-color:#39A9DC"/>
</linearGradient>
<polygon fill="url(#SVGID_3_)" points="249,64 250,71 250,79 256,79 256,71 255,64 "/>
<linearGradient id="SVGID_4_" gradientUnits="userSpaceOnUse" x1="201.7725" y1="70.4648" x2="191.8315" y2="60.5239">
	<stop  offset="0" style="stop-color:#A10D59"/>
	<stop  offset="0.9879" style="stop-color:#39A9DC"/>
</linearGradient>
<path fill="url(#SVGID_4_)" d="M198.455,73.717l0.002,0.001l0.015-0.021c0.009-0.014,0.019-0.027,0.028-0.041L200.972,70H200
	c-1.104,0-2-0.896-2-2V55.142c-1.464,0.379-2.608,1.553-2.917,3.045l0-0.001l-0.001,0.005c0,0.004-0.001,0.008-0.001,0.012
	l-1.961,13.003C193.05,71.461,193,71.724,193,72c0,1.657,1.343,3,3,3C197.017,75,197.912,74.491,198.455,73.717z"/>
<linearGradient id="SVGID_5_" gradientUnits="userSpaceOnUse" x1="164.0435" y1="-21.0425" x2="149.5436" y2="-35.5423">
	<stop  offset="0" style="stop-color:#A10D59"/>
	<stop  offset="0.9879" style="stop-color:#39A9DC"/>
</linearGradient>
<path fill="url(#SVGID_5_)" d="M154-40v21c0,1.104,0.896,2,2,2h4c-1.104,0-2-0.896-2-2v-21H154z"/>
<linearGradient id="SVGID_6_" gradientUnits="userSpaceOnUse" x1="166.2505" y1="-71.2495" x2="159.7505" y2="-77.7495">
	<stop  offset="0" style="stop-color:#A10D59"/>
	<stop  offset="0.9879" style="stop-color:#39A9DC"/>
</linearGradient>
<polygon fill="url(#SVGID_6_)" points="154,-72 166,-84 166,-71 154,-71 "/>
<polyline fill="#9C9E9F" points="57,170.6 51,173 53.4,167 "/>
<rect x="67.793" y="146.186" transform="matrix(0.7071 0.7071 -0.7071 0.7071 131.4325 -2.3061)" fill="#9C9E9F" width="1.414" height="22.627"/>
<linearGradient id="SVGID_7_" gradientUnits="userSpaceOnUse" x1="51" y1="65" x2="79" y2="65">
	<stop  offset="0" style="stop-color:#A10D59"/>
	<stop  offset="0.9879" style="stop-color:#39A9DC"/>
</linearGradient>
<polygon fill="url(#SVGID_7_)" points="79,55 77,53 59,71 55,72.6 53.4,71 51,77 57,74.6 57,74.6 61,73 "/>
<g>
	<linearGradient id="SVGID_8_" gradientUnits="userSpaceOnUse" x1="-33.457" y1="119.457" x2="-46.957" y2="105.9571">
		<stop  offset="0" style="stop-color:#A10D59"/>
		<stop  offset="0.9879" style="stop-color:#39A9DC"/>
	</linearGradient>
	<path fill="url(#SVGID_8_)" d="M-38,120v-2v-13v-2h-6v2v15c0,1.104,0.896,2,2,2h6C-37.104,122-38,121.104-38,120z"/>
</g>
<linearGradient id="SVGID_9_" gradientUnits="userSpaceOnUse" x1="-22.9995" y1="-14.9995" x2="-46.4998" y2="-38.4998">
	<stop  offset="0" style="stop-color:#A10D59"/>
	<stop  offset="0.9879" style="stop-color:#39A9DC"/>
</linearGradient>
<path fill="url(#SVGID_9_)" d="M-36-24c-1.104,0-2-0.896-2-2v-15h-6v20h27v-3H-36z"/>
<linearGradient id="SVGID_10_" gradientUnits="userSpaceOnUse" x1="-79.2437" y1="-21.7559" x2="-87.8436" y2="-30.3558">
	<stop  offset="0" style="stop-color:#A10D59"/>
	<stop  offset="0.9879" style="stop-color:#39A9DC"/>
</linearGradient>
<path fill="url(#SVGID_10_)" d="M-86-32.2v10.176C-84.407-21.39-82.309-21-80-21v-8L-86-32.2z"/>
<polygon fill="none" stroke="#1A171B" stroke-width="2" stroke-linecap="round" stroke-linejoin="round" stroke-miterlimit="10" points="
	-65,-132 -80,-141 -95,-132 -80,-123 "/>
<path fill="none" stroke="#1A171B" stroke-width="2" stroke-linecap="round" stroke-linejoin="round" stroke-miterlimit="10" d="
	M-89-128.333V-119c0,2.209,4.029,4,9,4s9-1.791,9-4v-6"/>
<line fill="none" stroke="#1A171B" stroke-width="2" stroke-linecap="round" stroke-linejoin="round" stroke-miterlimit="10" x1="-67" y1="-130.825" x2="-67" y2="-119"/>
<line fill="none" stroke="#1A171B" stroke-width="2" stroke-linecap="round" stroke-linejoin="round" stroke-miterlimit="10" x1="-67" y1="-113" x2="-67" y2="-115"/>
<polygon fill="none" stroke="#1A171B" stroke-width="2" stroke-linecap="round" stroke-linejoin="round" stroke-miterlimit="10" points="
	-65,-85 -80,-93 -95,-85 -80,-77 "/>
<path fill="none" stroke="#1A171B" stroke-width="2" stroke-linecap="round" stroke-linejoin="round" stroke-miterlimit="10" d="
	M-89-81.333V-73c0,2.209,4.029,4,9,4s9-1.791,9-4v-4"/>
<line fill="none" stroke="#1A171B" stroke-width="2" stroke-linecap="round" stroke-linejoin="round" stroke-miterlimit="10" x1="-67" y1="-83.825" x2="-67" y2="-73"/>
<line fill="none" stroke="#1A171B" stroke-width="2" stroke-linecap="round" stroke-linejoin="round" stroke-miterlimit="10" x1="-67" y1="-67" x2="-67" y2="-69"/>
<polygon fill="none" stroke="#1A171B" stroke-width="2" stroke-linecap="round" stroke-linejoin="round" stroke-miterlimit="10" points="
	-65,-37 -80,-45 -95,-37 -80,-29 "/>
<path fill="none" stroke="#1A171B" stroke-width="2" stroke-linecap="round" stroke-linejoin="round" stroke-miterlimit="10" d="
	M-89-33.333V-25c0,2.209,4.029,4,9,4s9-1.791,9-4v-4"/>
<line fill="none" stroke="#1A171B" stroke-width="2" stroke-linecap="round" stroke-linejoin="round" stroke-miterlimit="10" x1="-67" y1="-35.825" x2="-67" y2="-25"/>
<line fill="none" stroke="#1A171B" stroke-width="2" stroke-linecap="round" stroke-linejoin="round" stroke-miterlimit="10" x1="-67" y1="-19" x2="-67" y2="-21"/>
<path fill="#9C9E9F" d="M-86,15.8v10.176C-84.407,26.61-82.309,27-80,27v-8L-86,15.8z"/>
<polygon fill="none" stroke="#1A171B" stroke-width="2" stroke-linecap="round" stroke-linejoin="round" stroke-miterlimit="10" points="
	-65,11 -80,3 -95,11 -80,19 "/>
<path fill="none" stroke="#1A171B" stroke-width="2" stroke-linecap="round" stroke-linejoin="round" stroke-miterlimit="10" d="
	M-89,14.667V23c0,2.209,4.029,4,9,4s9-1.791,9-4v-4"/>
<line fill="none" stroke="#1A171B" stroke-width="2" stroke-linecap="round" stroke-linejoin="round" stroke-miterlimit="10" x1="-67" y1="12.175" x2="-67" y2="23"/>
<line fill="none" stroke="#1A171B" stroke-width="2" stroke-linecap="round" stroke-linejoin="round" stroke-miterlimit="10" x1="-67" y1="29" x2="-67" y2="27"/>
<linearGradient id="SVGID_11_" gradientUnits="userSpaceOnUse" x1="-53.521" y1="-34.728" x2="-62.9785" y2="-44.1856">
	<stop  offset="0" style="stop-color:#A10D59"/>
	<stop  offset="0.9879" style="stop-color:#39A9DC"/>
</linearGradient>
<rect x="-60.25" y="-46.916" fill="url(#SVGID_11_)" width="4" height="14.916"/>
<linearGradient id="SVGID_12_" gradientUnits="userSpaceOnUse" x1="-35.2495" y1="24.2505" x2="-46.7497" y2="12.7503">
	<stop  offset="0" style="stop-color:#A10D59"/>
	<stop  offset="0.9879" style="stop-color:#39A9DC"/>
</linearGradient>
<rect x="-44" y="10" fill="url(#SVGID_12_)" width="6" height="17"/>
<polyline fill="none" stroke="#1A171B" stroke-width="2" stroke-linecap="round" stroke-linejoin="round" stroke-miterlimit="10" points="
	-37,-137 -37,-141 -27,-141 -27,-137 "/>
<path fill="none" stroke="#1A171B" stroke-width="2" stroke-linecap="round" stroke-linejoin="round" stroke-miterlimit="10" d="
	M-17-117c0,1.104-0.896,2-2,2h-26c-1.104,0-2-0.896-2-2v-18c0-1.104,0.896-2,2-2h26c1.104,0,2,0.896,2,2V-117z"/>
<line fill="none" stroke="#1A171B" stroke-width="2" stroke-linecap="round" stroke-linejoin="round" stroke-miterlimit="10" x1="-37" y1="-127" x2="-31" y2="-127"/>
<rect x="-41" y="-129" fill="none" stroke="#1A171B" stroke-width="2" stroke-linecap="round" stroke-linejoin="round" stroke-miterlimit="10" width="4" height="6"/>
<rect x="-27" y="-129" fill="none" stroke="#1A171B" stroke-width="2" stroke-linecap="round" stroke-linejoin="round" stroke-miterlimit="10" width="4" height="6"/>
<polyline fill="none" stroke="#1A171B" stroke-width="2" stroke-linecap="round" stroke-linejoin="round" stroke-miterlimit="10" points="
	-37,-89 -37,-93 -27,-93 -27,-89 "/>
<path fill="none" stroke="#1A171B" stroke-width="2" stroke-linecap="round" stroke-linejoin="round" stroke-miterlimit="10" d="
	M-17-71c0,1.104-0.896,2-2,2h-26c-1.104,0-2-0.896-2-2v-16c0-1.104,0.896-2,2-2h26c1.104,0,2,0.896,2,2V-71z"/>
<line fill="none" stroke="#1A171B" stroke-width="2" stroke-linecap="round" stroke-linejoin="round" stroke-miterlimit="10" x1="-47" y1="-79" x2="-29" y2="-79"/>
<line fill="#FFFFFF" stroke="#1A171B" stroke-width="2" stroke-linecap="round" stroke-linejoin="round" stroke-miterlimit="10" x1="-39" y1="-81" x2="-39" y2="-77"/>
<line fill="#FFFFFF" stroke="#1A171B" stroke-width="2" stroke-linecap="round" stroke-linejoin="round" stroke-miterlimit="10" x1="-25" y1="-81" x2="-25" y2="-77"/>
<line fill="none" stroke="#1A171B" stroke-width="2" stroke-linecap="round" stroke-linejoin="round" stroke-miterlimit="10" x1="-25" y1="-79" x2="-17" y2="-79"/>
<polyline fill="none" stroke="#1A171B" stroke-width="2" stroke-linecap="round" stroke-linejoin="round" stroke-miterlimit="10" points="
	-37,-41 -37,-45 -27,-45 -27,-41 "/>
<path fill="none" stroke="#1A171B" stroke-width="2" stroke-linecap="round" stroke-linejoin="round" stroke-miterlimit="10" d="
	M-17-23c0,1.104-0.896,2-2,2h-26c-1.104,0-2-0.896-2-2v-16c0-1.104,0.896-2,2-2h26c1.104,0,2,0.896,2,2V-23z"/>
<line fill="none" stroke="#1A171B" stroke-width="2" stroke-linecap="round" stroke-linejoin="round" stroke-miterlimit="10" x1="-47" y1="-31" x2="-29" y2="-31"/>
<line fill="#FFFFFF" stroke="#1A171B" stroke-width="2" stroke-linecap="round" stroke-linejoin="round" stroke-miterlimit="10" x1="-39" y1="-33" x2="-39" y2="-29"/>
<line fill="#FFFFFF" stroke="#1A171B" stroke-width="2" stroke-linecap="round" stroke-linejoin="round" stroke-miterlimit="10" x1="-25" y1="-33" x2="-25" y2="-29"/>
<line fill="none" stroke="#1A171B" stroke-width="2" stroke-linecap="round" stroke-linejoin="round" stroke-miterlimit="10" x1="-25" y1="-31" x2="-17" y2="-31"/>
<polyline fill="none" stroke="#1A171B" stroke-width="2" stroke-linecap="round" stroke-linejoin="round" stroke-miterlimit="10" points="
	-37,103 -37,99 -27,99 -27,103 "/>
<path fill="none" stroke="#1A171B" stroke-width="2" stroke-linecap="round" stroke-linejoin="round" stroke-miterlimit="10" d="
	M-17,121c0,1.104-0.896,2-2,2h-26c-1.104,0-2-0.896-2-2v-16c0-1.104,0.896-2,2-2h26c1.104,0,2,0.896,2,2V121z"/>
<line fill="none" stroke="#1A171B" stroke-width="2" stroke-linecap="round" stroke-linejoin="round" stroke-miterlimit="10" x1="-47" y1="113" x2="-29" y2="113"/>
<line fill="#FFFFFF" stroke="#1A171B" stroke-width="2" stroke-linecap="round" stroke-linejoin="round" stroke-miterlimit="10" x1="-39" y1="111" x2="-39" y2="115"/>
<line fill="#FFFFFF" stroke="#1A171B" stroke-width="2" stroke-linecap="round" stroke-linejoin="round" stroke-miterlimit="10" x1="-25" y1="111" x2="-25" y2="115"/>
<line fill="none" stroke="#1A171B" stroke-width="2" stroke-linecap="round" stroke-linejoin="round" stroke-miterlimit="10" x1="-25" y1="113" x2="-17" y2="113"/>
<g>
	<path fill="#9C9E9F" d="M-38,168v-2v-13v-2h-6v2v15c0,1.104,0.896,2,2,2h6C-37.104,170-38,169.104-38,168z"/>
</g>
<polyline fill="none" stroke="#1A171B" stroke-width="2" stroke-linecap="round" stroke-linejoin="round" stroke-miterlimit="10" points="
	-37,151 -37,147 -27,147 -27,151 "/>
<path fill="none" stroke="#1A171B" stroke-width="2" stroke-linecap="round" stroke-linejoin="round" stroke-miterlimit="10" d="
	M-17,169c0,1.104-0.896,2-2,2h-26c-1.104,0-2-0.896-2-2v-16c0-1.104,0.896-2,2-2h26c1.104,0,2,0.896,2,2V169z"/>
<line fill="none" stroke="#1A171B" stroke-width="2" stroke-linecap="round" stroke-linejoin="round" stroke-miterlimit="10" x1="-47" y1="161" x2="-29" y2="161"/>
<line fill="#FFFFFF" stroke="#1A171B" stroke-width="2" stroke-linecap="round" stroke-linejoin="round" stroke-miterlimit="10" x1="-39" y1="159" x2="-39" y2="163"/>
<line fill="#FFFFFF" stroke="#1A171B" stroke-width="2" stroke-linecap="round" stroke-linejoin="round" stroke-miterlimit="10" x1="-25" y1="159" x2="-25" y2="163"/>
<line fill="none" stroke="#1A171B" stroke-width="2" stroke-linecap="round" stroke-linejoin="round" stroke-miterlimit="10" x1="-25" y1="161" x2="-17" y2="161"/>
<polyline fill="none" stroke="#1A171B" stroke-width="2" stroke-linecap="round" stroke-linejoin="round" stroke-miterlimit="10" points="
	-37,7 -37,3 -27,3 -27,7 "/>
<path fill="none" stroke="#1A171B" stroke-width="2" stroke-linecap="round" stroke-linejoin="round" stroke-miterlimit="10" d="
	M-17,25c0,1.104-0.896,2-2,2h-26c-1.104,0-2-0.896-2-2V9c0-1.104,0.896-2,2-2h26c1.104,0,2,0.896,2,2V25z"/>
<line fill="none" stroke="#1A171B" stroke-width="2" stroke-linecap="round" stroke-linejoin="round" stroke-miterlimit="10" x1="-47" y1="17" x2="-29" y2="17"/>
<line fill="#FFFFFF" stroke="#1A171B" stroke-width="2" stroke-linecap="round" stroke-linejoin="round" stroke-miterlimit="10" x1="-39" y1="15" x2="-39" y2="19"/>
<line fill="#FFFFFF" stroke="#1A171B" stroke-width="2" stroke-linecap="round" stroke-linejoin="round" stroke-miterlimit="10" x1="-25" y1="15" x2="-25" y2="19"/>
<line fill="none" stroke="#1A171B" stroke-width="2" stroke-linecap="round" stroke-linejoin="round" stroke-miterlimit="10" x1="-25" y1="17" x2="-17" y2="17"/>
<rect x="-44" y="58" fill="#9C9E9F" width="6" height="17"/>
<polyline fill="none" stroke="#1A171B" stroke-width="2" stroke-linecap="round" stroke-linejoin="round" stroke-miterlimit="10" points="
	-37,55 -37,51 -27,51 -27,55 "/>
<path fill="none" stroke="#1A171B" stroke-width="2" stroke-linecap="round" stroke-linejoin="round" stroke-miterlimit="10" d="
	M-17,73c0,1.104-0.896,2-2,2h-26c-1.104,0-2-0.896-2-2V57c0-1.104,0.896-2,2-2h26c1.104,0,2,0.896,2,2V73z"/>
<line fill="none" stroke="#1A171B" stroke-width="2" stroke-linecap="round" stroke-linejoin="round" stroke-miterlimit="10" x1="-47" y1="65" x2="-29" y2="65"/>
<line fill="#FFFFFF" stroke="#1A171B" stroke-width="2" stroke-linecap="round" stroke-linejoin="round" stroke-miterlimit="10" x1="-39" y1="63" x2="-39" y2="67"/>
<line fill="#FFFFFF" stroke="#1A171B" stroke-width="2" stroke-linecap="round" stroke-linejoin="round" stroke-miterlimit="10" x1="-25" y1="63" x2="-25" y2="67"/>
<line fill="none" stroke="#1A171B" stroke-width="2" stroke-linecap="round" stroke-linejoin="round" stroke-miterlimit="10" x1="-25" y1="65" x2="-17" y2="65"/>
<line fill="none" stroke="#1A171B" stroke-width="2" stroke-linecap="round" stroke-linejoin="round" stroke-miterlimit="10" x1="-23" y1="-127" x2="-17" y2="-127"/>
<line fill="none" stroke="#1A171B" stroke-width="2" stroke-linecap="round" stroke-linejoin="round" stroke-miterlimit="10" x1="-47" y1="-127" x2="-41" y2="-127"/>
<path fill="none" stroke="#1A171B" stroke-width="2" stroke-linecap="round" stroke-linejoin="round" stroke-miterlimit="10" d="
	M11-121h18c1.104,0,2-0.896,2-2v-16c0-1.104-0.896-2-2-2H3c-1.104,0-2,0.896-2,2v16v6l6-4"/>
<path fill="none" stroke="#FFFFFF" stroke-width="2" stroke-linecap="round" stroke-linejoin="round" stroke-miterlimit="10" d="
	M11-73h18c1.104,0,2-0.896,2-2v-16c0-1.104-0.896-2-2-2H3c-1.104,0-2,0.896-2,2v16v6l6-4"/>
<g>
	<path d="M30.71-372.849v7.016c0,0.516,0.024,1.103,0.048,1.499h-0.936l-0.048-1.007h-0.036c-0.312,0.647-1.007,1.139-1.955,1.139
		c-1.403,0-2.495-1.187-2.495-2.95c-0.012-1.931,1.2-3.106,2.603-3.106c0.9,0,1.487,0.42,1.751,0.875h0.024v-3.466H30.71z
		 M29.667-367.775c0-0.132-0.012-0.312-0.048-0.444c-0.156-0.66-0.731-1.211-1.523-1.211c-1.091,0-1.739,0.959-1.739,2.231
		c0,1.175,0.588,2.146,1.715,2.146c0.708,0,1.355-0.479,1.547-1.259c0.036-0.144,0.048-0.288,0.048-0.456V-367.775z"/>
	<path d="M33.065-367.044c0.024,1.427,0.923,2.015,1.991,2.015c0.755,0,1.223-0.132,1.607-0.3l0.192,0.756
		c-0.372,0.168-1.019,0.372-1.943,0.372c-1.787,0-2.854-1.187-2.854-2.938c0-1.751,1.032-3.118,2.723-3.118
		c1.907,0,2.399,1.655,2.399,2.723c0,0.216-0.012,0.372-0.036,0.492H33.065z M36.159-367.8c0.012-0.659-0.276-1.703-1.463-1.703
		c-1.079,0-1.535,0.971-1.619,1.703H36.159z"/>
	<path d="M38.345-365.401c0.324,0.192,0.875,0.408,1.403,0.408c0.756,0,1.115-0.372,1.115-0.863c0-0.504-0.3-0.768-1.067-1.056
		c-1.055-0.384-1.547-0.947-1.547-1.643c0-0.936,0.768-1.703,2.003-1.703c0.587,0,1.103,0.156,1.415,0.36l-0.252,0.768
		c-0.228-0.144-0.647-0.348-1.187-0.348c-0.624,0-0.959,0.36-0.959,0.792c0,0.479,0.335,0.695,1.091,0.996
		c0.995,0.372,1.523,0.875,1.523,1.739c0,1.031-0.803,1.751-2.159,1.751c-0.636,0-1.223-0.168-1.631-0.408L38.345-365.401z"/>
	<path d="M43.097-365.401c0.324,0.192,0.875,0.408,1.403,0.408c0.756,0,1.115-0.372,1.115-0.863c0-0.504-0.3-0.768-1.067-1.056
		c-1.055-0.384-1.547-0.947-1.547-1.643c0-0.936,0.768-1.703,2.003-1.703c0.587,0,1.103,0.156,1.415,0.36l-0.252,0.768
		c-0.228-0.144-0.647-0.348-1.187-0.348c-0.624,0-0.959,0.36-0.959,0.792c0,0.479,0.335,0.695,1.091,0.996
		c0.995,0.372,1.523,0.875,1.523,1.739c0,1.031-0.803,1.751-2.159,1.751c-0.636,0-1.223-0.168-1.631-0.408L43.097-365.401z"/>
	<path d="M49.168-371.77c0,0.36-0.252,0.648-0.671,0.648c-0.384,0-0.636-0.288-0.636-0.648s0.264-0.66,0.66-0.66
		C48.904-372.429,49.168-372.141,49.168-371.77z M47.993-364.333v-5.805h1.056v5.805H47.993z"/>
	<path d="M50.801-368.567c0-0.611-0.012-1.091-0.048-1.571h0.936l0.06,0.959h0.024c0.288-0.54,0.959-1.08,1.919-1.08
		c0.803,0,2.051,0.48,2.051,2.471v3.454h-1.056v-3.346c0-0.936-0.348-1.715-1.343-1.715c-0.684,0-1.223,0.492-1.415,1.079
		c-0.048,0.132-0.072,0.312-0.072,0.492v3.49h-1.056V-368.567z"/>
	<path d="M61.276-371.529v1.391h1.511v0.803h-1.511v3.13c0,0.72,0.204,1.127,0.792,1.127c0.288,0,0.456-0.024,0.611-0.072
		l0.048,0.803c-0.204,0.072-0.528,0.144-0.936,0.144c-0.492,0-0.888-0.168-1.14-0.444c-0.288-0.324-0.408-0.839-0.408-1.523v-3.167
		h-0.899v-0.803h0.899v-1.08L61.276-371.529z"/>
	<path d="M63.977-368.327c0-0.684-0.012-1.271-0.048-1.811h0.923l0.048,1.151h0.036c0.264-0.78,0.912-1.271,1.619-1.271
		c0.108,0,0.192,0.012,0.288,0.024v0.996c-0.108-0.024-0.216-0.024-0.36-0.024c-0.744,0-1.271,0.552-1.416,1.343
		c-0.024,0.144-0.036,0.324-0.036,0.492v3.094h-1.056V-368.327z"/>
	<path d="M71.918-365.725c0,0.503,0.024,0.995,0.084,1.391h-0.947l-0.084-0.731h-0.036c-0.324,0.456-0.947,0.863-1.775,0.863
		c-1.175,0-1.775-0.828-1.775-1.667c0-1.403,1.247-2.171,3.49-2.159v-0.12c0-0.468-0.132-1.343-1.319-1.331
		c-0.551,0-1.115,0.156-1.523,0.432l-0.24-0.708c0.479-0.3,1.188-0.504,1.919-0.504c1.775,0,2.207,1.211,2.207,2.363V-365.725z
		 M70.899-367.296c-1.151-0.024-2.459,0.18-2.459,1.307c0,0.696,0.456,1.008,0.983,1.008c0.768,0,1.259-0.48,1.427-0.972
		c0.036-0.12,0.048-0.24,0.048-0.336V-367.296z"/>
	<path d="M78.626-372.849v7.016c0,0.516,0.024,1.103,0.048,1.499h-0.936l-0.048-1.007h-0.036c-0.312,0.647-1.007,1.139-1.955,1.139
		c-1.403,0-2.495-1.187-2.495-2.95c-0.012-1.931,1.2-3.106,2.603-3.106c0.9,0,1.487,0.42,1.751,0.875h0.024v-3.466H78.626z
		 M77.583-367.775c0-0.132-0.012-0.312-0.048-0.444c-0.156-0.66-0.731-1.211-1.523-1.211c-1.091,0-1.739,0.959-1.739,2.231
		c0,1.175,0.588,2.146,1.715,2.146c0.708,0,1.355-0.479,1.547-1.259c0.036-0.144,0.048-0.288,0.048-0.456V-367.775z"/>
	<path d="M81.568-371.77c0,0.36-0.252,0.648-0.671,0.648c-0.384,0-0.636-0.288-0.636-0.648s0.264-0.66,0.66-0.66
		C81.304-372.429,81.568-372.141,81.568-371.77z M80.393-364.333v-5.805h1.056v5.805H80.393z"/>
	<path d="M29.787-335.725c0,0.503,0.024,0.995,0.084,1.391h-0.947l-0.084-0.731h-0.036c-0.324,0.456-0.947,0.863-1.775,0.863
		c-1.175,0-1.775-0.828-1.775-1.667c0-1.403,1.247-2.171,3.49-2.159v-0.12c0-0.468-0.132-1.343-1.319-1.331
		c-0.552,0-1.116,0.156-1.523,0.432l-0.24-0.708c0.479-0.3,1.187-0.504,1.919-0.504c1.775,0,2.207,1.211,2.207,2.363V-335.725z
		 M28.767-337.296c-1.151-0.024-2.458,0.18-2.458,1.307c0,0.696,0.456,1.008,0.983,1.008c0.768,0,1.259-0.48,1.427-0.972
		c0.036-0.12,0.048-0.24,0.048-0.336V-337.296z"/>
	<path d="M35.631-334.538c-0.276,0.132-0.887,0.336-1.667,0.336c-1.751,0-2.891-1.187-2.891-2.962c0-1.787,1.224-3.094,3.119-3.094
		c0.624,0,1.175,0.156,1.463,0.312l-0.24,0.803c-0.252-0.132-0.647-0.276-1.223-0.276c-1.332,0-2.051,0.996-2.051,2.195
		c0,1.343,0.864,2.171,2.015,2.171c0.6,0,0.996-0.144,1.295-0.276L35.631-334.538z"/>
	<path d="M40.935-334.538c-0.276,0.132-0.888,0.336-1.667,0.336c-1.751,0-2.891-1.187-2.891-2.962c0-1.787,1.224-3.094,3.119-3.094
		c0.624,0,1.175,0.156,1.463,0.312l-0.24,0.803c-0.252-0.132-0.647-0.276-1.223-0.276c-1.332,0-2.051,0.996-2.051,2.195
		c0,1.343,0.864,2.171,2.015,2.171c0.6,0,0.996-0.144,1.295-0.276L40.935-334.538z"/>
	<path d="M42.689-337.044c0.024,1.427,0.923,2.015,1.991,2.015c0.755,0,1.223-0.132,1.607-0.3l0.192,0.756
		c-0.372,0.168-1.019,0.372-1.943,0.372c-1.787,0-2.854-1.187-2.854-2.938c0-1.751,1.032-3.118,2.723-3.118
		c1.907,0,2.399,1.655,2.399,2.723c0,0.216-0.012,0.372-0.036,0.492H42.689z M45.783-337.8c0.012-0.659-0.276-1.703-1.463-1.703
		c-1.079,0-1.535,0.971-1.619,1.703H45.783z"/>
	<path d="M47.969-335.401c0.324,0.192,0.875,0.408,1.403,0.408c0.756,0,1.115-0.372,1.115-0.863c0-0.504-0.3-0.768-1.067-1.056
		c-1.055-0.384-1.547-0.947-1.547-1.643c0-0.936,0.768-1.703,2.003-1.703c0.587,0,1.103,0.156,1.415,0.36l-0.252,0.768
		c-0.228-0.144-0.647-0.348-1.187-0.348c-0.624,0-0.959,0.36-0.959,0.792c0,0.479,0.335,0.695,1.091,0.996
		c0.995,0.372,1.523,0.875,1.523,1.739c0,1.031-0.803,1.751-2.159,1.751c-0.636,0-1.223-0.168-1.631-0.408L47.969-335.401z"/>
	<path d="M52.721-335.401c0.324,0.192,0.875,0.408,1.403,0.408c0.756,0,1.115-0.372,1.115-0.863c0-0.504-0.3-0.768-1.067-1.056
		c-1.055-0.384-1.547-0.947-1.547-1.643c0-0.936,0.768-1.703,2.003-1.703c0.587,0,1.103,0.156,1.415,0.36l-0.252,0.768
		c-0.228-0.144-0.647-0.348-1.187-0.348c-0.624,0-0.959,0.36-0.959,0.792c0,0.479,0.335,0.695,1.091,0.996
		c0.995,0.372,1.523,0.875,1.523,1.739c0,1.031-0.803,1.751-2.159,1.751c-0.636,0-1.223-0.168-1.631-0.408L52.721-335.401z"/>
	<path d="M58.792-341.77c0,0.36-0.252,0.648-0.671,0.648c-0.384,0-0.636-0.288-0.636-0.648s0.264-0.66,0.66-0.66
		C58.528-342.429,58.792-342.141,58.792-341.77z M57.617-334.333v-5.805h1.056v5.805H57.617z"/>
	<path d="M60.425-342.849h1.043v3.646h0.024c0.372-0.648,1.043-1.056,1.979-1.056c1.451,0,2.458,1.199,2.458,2.951
		c0,2.075-1.319,3.106-2.614,3.106c-0.84,0-1.511-0.324-1.955-1.079h-0.024l-0.06,0.947h-0.899c0.024-0.396,0.048-0.983,0.048-1.499
		V-342.849z M61.468-336.66c0,0.132,0.012,0.264,0.048,0.384c0.192,0.731,0.815,1.235,1.583,1.235c1.116,0,1.763-0.899,1.763-2.231
		c0-1.163-0.6-2.159-1.739-2.159c-0.708,0-1.379,0.504-1.595,1.295c-0.036,0.132-0.06,0.276-0.06,0.444V-336.66z"/>
	<path d="M68.428-341.77c0,0.36-0.252,0.648-0.671,0.648c-0.384,0-0.636-0.288-0.636-0.648s0.264-0.66,0.66-0.66
		C68.164-342.429,68.428-342.141,68.428-341.77z M67.252-334.333v-5.805h1.056v5.805H67.252z"/>
	<path d="M70.061-342.849h1.056v8.515h-1.056V-342.849z"/>
	<path d="M74.068-341.77c0,0.36-0.252,0.648-0.671,0.648c-0.384,0-0.636-0.288-0.636-0.648s0.264-0.66,0.66-0.66
		C73.804-342.429,74.068-342.141,74.068-341.77z M72.893-334.333v-5.805h1.056v5.805H72.893z"/>
	<path d="M76.972-341.529v1.391h1.511v0.803h-1.511v3.13c0,0.72,0.204,1.127,0.792,1.127c0.288,0,0.456-0.024,0.612-0.072
		l0.048,0.803c-0.204,0.072-0.528,0.144-0.936,0.144c-0.492,0-0.888-0.168-1.14-0.444c-0.288-0.324-0.408-0.839-0.408-1.523v-3.167
		h-0.899v-0.803h0.899v-1.08L76.972-341.529z"/>
	<path d="M80.188-337.044c0.024,1.427,0.923,2.015,1.991,2.015c0.755,0,1.223-0.132,1.607-0.3l0.192,0.756
		c-0.372,0.168-1.019,0.372-1.943,0.372c-1.787,0-2.854-1.187-2.854-2.938c0-1.751,1.032-3.118,2.723-3.118
		c1.907,0,2.399,1.655,2.399,2.723c0,0.216-0.012,0.372-0.036,0.492H80.188z M83.283-337.8c0.012-0.659-0.276-1.703-1.463-1.703
		c-1.08,0-1.535,0.971-1.619,1.703H83.283z M83.522-342.645l-1.463,1.715h-0.743l1.055-1.715H83.522z"/>
	<path d="M25.709-308.567c0-0.611-0.024-1.091-0.048-1.571h0.923l0.048,0.947h0.036c0.324-0.552,0.864-1.067,1.835-1.067
		c0.78,0,1.379,0.48,1.631,1.164h0.024c0.18-0.336,0.419-0.576,0.66-0.756c0.348-0.264,0.719-0.408,1.271-0.408
		c0.78,0,1.919,0.504,1.919,2.519v3.406h-1.031v-3.274c0-1.127-0.42-1.787-1.259-1.787c-0.612,0-1.067,0.443-1.259,0.947
		c-0.048,0.156-0.084,0.336-0.084,0.528v3.586h-1.031v-3.478c0-0.923-0.408-1.583-1.211-1.583c-0.648,0-1.14,0.527-1.308,1.055
		c-0.06,0.144-0.084,0.336-0.084,0.516v3.49h-1.031V-308.567z"/>
	<path d="M40.97-307.284c0,2.146-1.499,3.082-2.89,3.082c-1.559,0-2.783-1.151-2.783-2.986c0-1.931,1.284-3.07,2.878-3.07
		C39.843-310.258,40.97-309.047,40.97-307.284z M36.376-307.224c0,1.271,0.72,2.231,1.751,2.231c1.007,0,1.763-0.947,1.763-2.255
		c0-0.983-0.492-2.219-1.739-2.219C36.916-309.467,36.376-308.315,36.376-307.224z"/>
	<path d="M42.305-312.849h1.043v3.646h0.024c0.372-0.648,1.043-1.056,1.979-1.056c1.451,0,2.458,1.199,2.458,2.951
		c0,2.075-1.319,3.106-2.614,3.106c-0.84,0-1.511-0.324-1.955-1.079h-0.024l-0.06,0.947h-0.899c0.024-0.396,0.048-0.983,0.048-1.499
		V-312.849z M43.348-306.66c0,0.132,0.012,0.264,0.048,0.384c0.192,0.731,0.815,1.235,1.583,1.235c1.116,0,1.763-0.899,1.763-2.231
		c0-1.163-0.6-2.159-1.739-2.159c-0.708,0-1.379,0.504-1.595,1.295c-0.036,0.132-0.06,0.276-0.06,0.444V-306.66z"/>
	<path d="M50.308-311.77c0,0.36-0.252,0.648-0.671,0.648c-0.384,0-0.636-0.288-0.636-0.648s0.264-0.66,0.66-0.66
		C50.044-312.429,50.308-312.141,50.308-311.77z M49.132-304.333v-5.805h1.056v5.805H49.132z"/>
	<path d="M51.94-312.849h1.056v8.515H51.94V-312.849z"/>
	<path d="M55.36-307.044c0.024,1.427,0.923,2.015,1.991,2.015c0.755,0,1.223-0.132,1.607-0.3l0.192,0.756
		c-0.372,0.168-1.019,0.372-1.943,0.372c-1.787,0-2.854-1.187-2.854-2.938c0-1.751,1.032-3.118,2.723-3.118
		c1.907,0,2.399,1.655,2.399,2.723c0,0.216-0.012,0.372-0.036,0.492H55.36z M58.455-307.8c0.012-0.659-0.276-1.703-1.463-1.703
		c-1.08,0-1.535,0.971-1.619,1.703H58.455z"/>
	<path d="M63.436-304.333v-5.001h-0.804v-0.803h0.804v-0.324c0-1.523,0.899-2.519,2.531-2.519c0.54,0,1.175,0.168,1.475,0.384
		l-0.3,0.804c-0.264-0.18-0.708-0.336-1.223-0.336c-1.116,0-1.439,0.78-1.439,1.703v0.288h3.37v5.805h-1.055v-5.001h-2.315v5.001
		H63.436z"/>
	<path d="M69.604-308.327c0-0.684-0.012-1.271-0.048-1.811h0.923l0.048,1.151h0.036c0.264-0.78,0.912-1.271,1.619-1.271
		c0.108,0,0.192,0.012,0.288,0.024v0.996c-0.108-0.024-0.216-0.024-0.359-0.024c-0.744,0-1.271,0.552-1.416,1.343
		c-0.024,0.144-0.036,0.324-0.036,0.492v3.094h-1.056V-308.327z"/>
	<path d="M73.384-305.401c0.324,0.192,0.875,0.408,1.403,0.408c0.756,0,1.115-0.372,1.115-0.863c0-0.504-0.3-0.768-1.067-1.056
		c-1.055-0.384-1.547-0.947-1.547-1.643c0-0.936,0.768-1.703,2.003-1.703c0.587,0,1.103,0.156,1.415,0.36l-0.252,0.768
		c-0.228-0.144-0.647-0.348-1.187-0.348c-0.624,0-0.959,0.36-0.959,0.792c0,0.479,0.335,0.695,1.091,0.996
		c0.995,0.372,1.523,0.875,1.523,1.739c0,1.031-0.803,1.751-2.159,1.751c-0.636,0-1.223-0.168-1.631-0.408L73.384-305.401z"/>
	<path d="M79.551-311.529v1.391h1.511v0.803h-1.511v3.13c0,0.72,0.204,1.127,0.792,1.127c0.288,0,0.456-0.024,0.612-0.072
		l0.048,0.803c-0.204,0.072-0.528,0.144-0.936,0.144c-0.492,0-0.888-0.168-1.14-0.444c-0.288-0.324-0.408-0.839-0.408-1.523v-3.167
		H77.62v-0.803h0.899v-1.08L79.551-311.529z"/>
	<path d="M24.282-272.63c0.492-0.036,0.899-0.168,1.151-0.456c0.288-0.324,0.408-0.78,0.408-2.171v-4.881h1.056v5.289
		c0,1.127-0.18,1.859-0.696,2.387c-0.468,0.468-1.235,0.66-1.799,0.66L24.282-272.63z M27.016-281.77
		c0,0.348-0.24,0.648-0.671,0.648c-0.384,0-0.636-0.3-0.636-0.648c0-0.36,0.264-0.66,0.66-0.66S27.016-282.129,27.016-281.77z"/>
	<path d="M29.213-277.044c0.024,1.427,0.923,2.015,1.991,2.015c0.755,0,1.223-0.132,1.607-0.3l0.192,0.756
		c-0.372,0.168-1.019,0.372-1.943,0.372c-1.787,0-2.854-1.187-2.854-2.938c0-1.751,1.032-3.118,2.723-3.118
		c1.907,0,2.399,1.655,2.399,2.723c0,0.216-0.012,0.372-0.036,0.492H29.213z M32.307-277.8c0.012-0.659-0.276-1.703-1.463-1.703
		c-1.08,0-1.535,0.971-1.619,1.703H32.307z"/>
	<path d="M39.494-275.929c0,0.612,0.012,1.14,0.048,1.595h-0.936l-0.06-0.947h-0.024c-0.264,0.467-0.887,1.079-1.919,1.079
		c-0.911,0-2.003-0.516-2.003-2.542v-3.394h1.056v3.202c0,1.104,0.348,1.859,1.295,1.859c0.708,0,1.199-0.492,1.391-0.971
		c0.06-0.144,0.096-0.336,0.096-0.54v-3.55h1.056V-275.929z"/>
	<path d="M41.74-280.138l0.828,1.247c0.228,0.324,0.408,0.612,0.6,0.936h0.024c0.192-0.336,0.384-0.636,0.588-0.947l0.803-1.235
		h1.151l-1.979,2.806l2.027,2.999h-1.188l-0.864-1.307c-0.228-0.336-0.419-0.66-0.624-1.008h-0.024
		c-0.192,0.348-0.384,0.66-0.612,1.008l-0.839,1.307h-1.163l2.063-2.962l-1.967-2.842H41.74z"/>
	<path d="M49.756-280.138l1.14,3.25c0.192,0.54,0.348,1.02,0.468,1.5h0.036c0.132-0.48,0.3-0.96,0.492-1.5l1.127-3.25h1.104
		l-2.279,5.805h-1.007l-2.207-5.805H49.756z"/>
	<path d="M56.296-281.77c0,0.36-0.252,0.648-0.671,0.648c-0.384,0-0.636-0.288-0.636-0.648s0.264-0.66,0.66-0.66
		C56.032-282.429,56.296-282.141,56.296-281.77z M55.121-274.333v-5.805h1.056v5.805H55.121z"/>
	<path d="M62.93-282.849v7.016c0,0.516,0.024,1.103,0.048,1.499h-0.936l-0.048-1.007h-0.036c-0.312,0.647-1.007,1.139-1.955,1.139
		c-1.403,0-2.495-1.187-2.495-2.95c-0.012-1.931,1.2-3.106,2.603-3.106c0.9,0,1.487,0.42,1.751,0.875h0.024v-3.466H62.93z
		 M61.887-277.775c0-0.132-0.012-0.312-0.048-0.444c-0.156-0.66-0.731-1.211-1.523-1.211c-1.091,0-1.739,0.959-1.739,2.231
		c0,1.175,0.588,2.146,1.715,2.146c0.708,0,1.355-0.479,1.547-1.259c0.036-0.144,0.048-0.288,0.048-0.456V-277.775z"/>
	<path d="M65.285-277.044c0.024,1.427,0.923,2.015,1.991,2.015c0.755,0,1.223-0.132,1.607-0.3l0.192,0.756
		c-0.372,0.168-1.019,0.372-1.943,0.372c-1.787,0-2.854-1.187-2.854-2.938c0-1.751,1.032-3.118,2.723-3.118
		c1.907,0,2.399,1.655,2.399,2.723c0,0.216-0.012,0.372-0.036,0.492H65.285z M68.379-277.8c0.012-0.659-0.276-1.703-1.463-1.703
		c-1.079,0-1.535,0.971-1.619,1.703H68.379z M68.619-282.645l-1.463,1.715h-0.744l1.056-1.715H68.619z"/>
	<path d="M75.961-277.284c0,2.146-1.499,3.082-2.89,3.082c-1.559,0-2.783-1.151-2.783-2.986c0-1.931,1.284-3.07,2.878-3.07
		C74.834-280.258,75.961-279.047,75.961-277.284z M71.368-277.224c0,1.271,0.72,2.231,1.751,2.231c1.007,0,1.763-0.947,1.763-2.255
		c0-0.983-0.492-2.219-1.739-2.219C71.908-279.467,71.368-278.315,71.368-277.224z"/>
	<path d="M25.709-252.849h1.056v8.515h-1.056V-252.849z"/>
	<path d="M29.129-247.044c0.024,1.427,0.923,2.015,1.991,2.015c0.755,0,1.223-0.132,1.607-0.3l0.192,0.756
		c-0.372,0.168-1.019,0.372-1.943,0.372c-1.787,0-2.854-1.187-2.854-2.938c0-1.751,1.032-3.118,2.723-3.118
		c1.907,0,2.399,1.655,2.399,2.723c0,0.216-0.012,0.372-0.036,0.492H29.129z M32.223-247.8c0.012-0.659-0.276-1.703-1.463-1.703
		c-1.08,0-1.535,0.971-1.619,1.703H32.223z"/>
	<path d="M38.69-244.538c-0.276,0.132-0.887,0.336-1.667,0.336c-1.751,0-2.891-1.187-2.891-2.962c0-1.787,1.224-3.094,3.119-3.094
		c0.624,0,1.175,0.156,1.463,0.312l-0.24,0.803c-0.252-0.132-0.647-0.276-1.223-0.276c-1.332,0-2.051,0.996-2.051,2.195
		c0,1.343,0.864,2.171,2.015,2.171c0.6,0,0.996-0.144,1.295-0.276L38.69-244.538z"/>
	<path d="M41.356-251.529v1.391h1.511v0.803h-1.511v3.13c0,0.72,0.204,1.127,0.792,1.127c0.288,0,0.456-0.024,0.612-0.072
		l0.048,0.803c-0.204,0.072-0.528,0.144-0.936,0.144c-0.492,0-0.888-0.168-1.14-0.444c-0.288-0.324-0.408-0.839-0.408-1.523v-3.167
		h-0.899v-0.803h0.899v-1.08L41.356-251.529z"/>
	<path d="M48.914-245.929c0,0.612,0.012,1.14,0.048,1.595h-0.936l-0.06-0.947h-0.024c-0.264,0.467-0.887,1.079-1.919,1.079
		c-0.911,0-2.003-0.516-2.003-2.542v-3.394h1.056v3.202c0,1.104,0.348,1.859,1.295,1.859c0.708,0,1.199-0.492,1.391-0.971
		c0.06-0.144,0.096-0.336,0.096-0.54v-3.55h1.056V-245.929z"/>
	<path d="M50.668-248.327c0-0.684-0.012-1.271-0.048-1.811h0.923l0.048,1.151h0.036c0.264-0.78,0.912-1.271,1.619-1.271
		c0.108,0,0.192,0.012,0.288,0.024v0.996c-0.108-0.024-0.216-0.024-0.36-0.024c-0.744,0-1.271,0.552-1.416,1.343
		c-0.024,0.144-0.036,0.324-0.036,0.492v3.094h-1.056V-248.327z"/>
	<path d="M55.06-247.044c0.024,1.427,0.923,2.015,1.991,2.015c0.755,0,1.223-0.132,1.607-0.3l0.192,0.756
		c-0.372,0.168-1.019,0.372-1.943,0.372c-1.787,0-2.854-1.187-2.854-2.938c0-1.751,1.032-3.118,2.723-3.118
		c1.907,0,2.399,1.655,2.399,2.723c0,0.216-0.012,0.372-0.036,0.492H55.06z M58.154-247.8c0.012-0.659-0.276-1.703-1.463-1.703
		c-1.08,0-1.535,0.971-1.619,1.703H58.154z"/>
	<path d="M29.847-214.538c-0.276,0.132-0.887,0.336-1.667,0.336c-1.751,0-2.891-1.187-2.891-2.962c0-1.787,1.224-3.094,3.119-3.094
		c0.624,0,1.175,0.156,1.463,0.312l-0.24,0.803c-0.252-0.132-0.647-0.276-1.223-0.276c-1.332,0-2.051,0.996-2.051,2.195
		c0,1.343,0.864,2.171,2.015,2.171c0.6,0,0.996-0.144,1.295-0.276L29.847-214.538z"/>
	<path d="M35.942-215.929c0,0.612,0.012,1.14,0.048,1.595h-0.936l-0.06-0.947h-0.024c-0.264,0.467-0.887,1.079-1.919,1.079
		c-0.911,0-2.003-0.516-2.003-2.542v-3.394h1.056v3.202c0,1.104,0.348,1.859,1.295,1.859c0.708,0,1.199-0.492,1.391-0.971
		c0.06-0.144,0.096-0.336,0.096-0.54v-3.55h1.056V-215.929z"/>
	<path d="M38.872-221.77c0,0.36-0.252,0.648-0.671,0.648c-0.384,0-0.636-0.288-0.636-0.648s0.264-0.66,0.66-0.66
		C38.608-222.429,38.872-222.141,38.872-221.77z M37.697-214.333v-5.805h1.056v5.805H37.697z"/>
	<path d="M40.361-215.401c0.324,0.192,0.875,0.408,1.403,0.408c0.756,0,1.115-0.372,1.115-0.863c0-0.504-0.3-0.768-1.067-1.056
		c-1.055-0.384-1.547-0.947-1.547-1.643c0-0.936,0.768-1.703,2.003-1.703c0.587,0,1.104,0.156,1.415,0.36l-0.252,0.768
		c-0.228-0.144-0.647-0.348-1.187-0.348c-0.624,0-0.959,0.36-0.959,0.792c0,0.479,0.335,0.695,1.091,0.996
		c0.996,0.372,1.523,0.875,1.523,1.739c0,1.031-0.803,1.751-2.159,1.751c-0.636,0-1.223-0.168-1.631-0.408L40.361-215.401z"/>
	<path d="M46.432-221.77c0,0.36-0.252,0.648-0.671,0.648c-0.384,0-0.636-0.288-0.636-0.648s0.264-0.66,0.66-0.66
		C46.168-222.429,46.432-222.141,46.432-221.77z M45.257-214.333v-5.805h1.056v5.805H45.257z"/>
	<path d="M48.065-218.567c0-0.611-0.012-1.091-0.048-1.571h0.936l0.06,0.959h0.024c0.288-0.54,0.959-1.08,1.919-1.08
		c0.803,0,2.051,0.48,2.051,2.471v3.454h-1.056v-3.346c0-0.936-0.348-1.715-1.343-1.715c-0.684,0-1.223,0.492-1.415,1.079
		c-0.048,0.132-0.072,0.312-0.072,0.492v3.49h-1.056V-218.567z"/>
	<path d="M55.313-217.044c0.024,1.427,0.923,2.015,1.991,2.015c0.755,0,1.223-0.132,1.607-0.3l0.192,0.756
		c-0.372,0.168-1.019,0.372-1.943,0.372c-1.787,0-2.854-1.187-2.854-2.938c0-1.751,1.032-3.118,2.723-3.118
		c1.907,0,2.399,1.655,2.399,2.723c0,0.216-0.012,0.372-0.036,0.492H55.313z M58.407-217.8c0.012-0.659-0.276-1.703-1.463-1.703
		c-1.08,0-1.535,0.971-1.619,1.703H58.407z"/>
	<path d="M25.709-188.567c0-0.611-0.024-1.091-0.048-1.571h0.923l0.048,0.947h0.036c0.324-0.552,0.864-1.067,1.835-1.067
		c0.78,0,1.379,0.48,1.631,1.164h0.024c0.18-0.336,0.419-0.576,0.66-0.756c0.348-0.264,0.719-0.408,1.271-0.408
		c0.78,0,1.919,0.504,1.919,2.519v3.406h-1.031v-3.274c0-1.127-0.42-1.787-1.259-1.787c-0.612,0-1.067,0.443-1.259,0.947
		c-0.048,0.156-0.084,0.336-0.084,0.528v3.586h-1.031v-3.478c0-0.923-0.408-1.583-1.211-1.583c-0.648,0-1.14,0.527-1.308,1.055
		c-0.06,0.144-0.084,0.336-0.084,0.516v3.49h-1.031V-188.567z"/>
	<path d="M39.794-185.725c0,0.503,0.024,0.995,0.084,1.391h-0.947l-0.084-0.731h-0.036c-0.324,0.456-0.947,0.863-1.775,0.863
		c-1.175,0-1.775-0.828-1.775-1.667c0-1.403,1.247-2.171,3.49-2.159v-0.12c0-0.468-0.132-1.343-1.319-1.331
		c-0.552,0-1.116,0.156-1.523,0.432l-0.24-0.708c0.479-0.3,1.187-0.504,1.919-0.504c1.775,0,2.207,1.211,2.207,2.363V-185.725z
		 M38.775-187.296c-1.151-0.024-2.458,0.18-2.458,1.307c0,0.696,0.456,1.008,0.983,1.008c0.768,0,1.259-0.48,1.427-0.972
		c0.036-0.12,0.048-0.24,0.048-0.336V-187.296z"/>
	<path d="M42.676-191.77c0,0.36-0.252,0.648-0.671,0.648c-0.384,0-0.636-0.288-0.636-0.648s0.264-0.66,0.66-0.66
		C42.413-192.429,42.676-192.141,42.676-191.77z M41.501-184.333v-5.805h1.056v5.805H41.501z"/>
	<path d="M44.309-192.849h1.056v8.515h-1.056V-192.849z"/>
</g>
<polyline fill="none" stroke="#1A171B" stroke-width="2" stroke-linecap="round" stroke-linejoin="round" stroke-miterlimit="10" points="
	57,-27 55,-29 71,-45 75,-41 59,-25 "/>
<rect x="53" y="-93" fill="none" stroke="#1A171B" stroke-width="2" stroke-linecap="round" stroke-linejoin="round" stroke-miterlimit="10" width="8" height="18"/>
<polyline fill="none" stroke="#1A171B" stroke-width="2" stroke-linecap="round" stroke-linejoin="round" stroke-miterlimit="10" points="
	53,-75 57,-67 61,-75 "/>
<path fill="none" stroke="#1A171B" stroke-width="2" stroke-linecap="round" stroke-linejoin="round" stroke-miterlimit="10" d="
	M61-67h12c2.209,0,4-1.791,4-4s-1.791-4-4-4h-3c-1.657,0-3-1.343-3-3s1.343-3,3-3h3"/>
<line fill="none" stroke="#1A171B" stroke-width="2" stroke-linecap="round" stroke-linejoin="round" stroke-miterlimit="10" x1="55" y1="-19" x2="77" y2="-19"/>
<polyline fill="none" stroke="#1A171B" stroke-width="2" stroke-linecap="round" stroke-linejoin="round" stroke-miterlimit="10" points="
	59,-25 51,-21 55,-29 "/>
<line fill="none" stroke="#1A171B" stroke-width="2" stroke-linecap="round" stroke-linejoin="round" stroke-miterlimit="10" x1="67" y1="-41" x2="71" y2="-37"/>
<polyline fill="none" stroke="#1A171B" stroke-width="2" stroke-linecap="round" stroke-linejoin="round" stroke-miterlimit="10" points="
	57,21 55,19 73,1 79,7 61,25 "/>
<polyline fill="none" stroke="#1A171B" stroke-width="2" stroke-linecap="round" stroke-linejoin="round" stroke-miterlimit="10" points="
	61,25 51,29 55,19 "/>
<line fill="none" stroke="#1A171B" stroke-width="2" stroke-linecap="round" stroke-linejoin="round" stroke-miterlimit="10" x1="69" y1="5" x2="75" y2="11"/>
<polyline fill="none" stroke="#1A171B" stroke-width="2" stroke-linecap="round" stroke-linejoin="round" stroke-miterlimit="10" points="
	57,165 55,163 73,145 79,151 61,169 "/>
<polyline fill="none" stroke="#1A171B" stroke-width="2" stroke-linecap="round" stroke-linejoin="round" stroke-miterlimit="10" points="
	61,169 51,173 55,163 "/>
<line fill="none" stroke="#1A171B" stroke-width="2" stroke-linecap="round" stroke-linejoin="round" stroke-miterlimit="10" x1="69" y1="149" x2="75" y2="155"/>
<polyline fill="none" stroke="#1A171B" stroke-width="2" stroke-linecap="round" stroke-linejoin="round" stroke-miterlimit="10" points="
	57,69 55,67 73,49 79,55 61,73 "/>
<polyline fill="none" stroke="#1A171B" stroke-width="2" stroke-linecap="round" stroke-linejoin="round" stroke-miterlimit="10" points="
	61,73 51,77 55,67 "/>
<line fill="none" stroke="#1A171B" stroke-width="2" stroke-linecap="round" stroke-linejoin="round" stroke-miterlimit="10" x1="69" y1="53" x2="75" y2="59"/>
<polygon fill="#9C9E9F" points="79,103 77,101 59,119 55,120.6 53.4,119 51,125 57,122.6 57,122.6 61,121 "/>
<polyline fill="none" stroke="#1A171B" stroke-width="2" stroke-linecap="round" stroke-linejoin="round" stroke-miterlimit="10" points="
	57,117 55,115 73,97 79,103 61,121 "/>
<polyline fill="none" stroke="#1A171B" stroke-width="2" stroke-linecap="round" stroke-linejoin="round" stroke-miterlimit="10" points="
	61,121 51,125 55,115 "/>
<line fill="none" stroke="#1A171B" stroke-width="2" stroke-linecap="round" stroke-linejoin="round" stroke-miterlimit="10" x1="69" y1="101" x2="75" y2="107"/>
<polyline fill="none" stroke="#1A171B" stroke-width="2" stroke-linecap="round" stroke-linejoin="round" stroke-miterlimit="10" points="
	57,-125 53,-125 53,-139 "/>
<line fill="none" stroke="#1A171B" stroke-width="2" stroke-linecap="round" stroke-linejoin="round" stroke-miterlimit="10" x1="61" y1="-137" x2="61" y2="-125"/>
<polyline fill="none" stroke="#1A171B" stroke-width="2" stroke-linecap="round" stroke-linejoin="round" stroke-miterlimit="10" points="
	53,-125 57,-115 61,-125 "/>
<path fill="none" stroke="#1A171B" stroke-width="2" stroke-linecap="round" stroke-linejoin="round" stroke-miterlimit="10" d="
	M61-115h12c2.209,0,4-1.791,4-4s-1.791-4-4-4h-3c-1.657,0-3-1.343-3-3s1.343-3,3-3h3"/>
<path fill="none" stroke="#97BF0D" stroke-width="4" stroke-linecap="round" stroke-linejoin="round" stroke-miterlimit="10" d="
	M4.156-372.392c0.132,2.004,4.295,6.289,6.774,8.92c1.281-3.824,7.87-15.395,9.226-16.92"/>
<path fill="none" stroke="#97BF0D" stroke-width="4" stroke-linecap="round" stroke-linejoin="round" stroke-miterlimit="10" d="
	M4.156-341.87c0.132,2.004,4.295,6.289,6.774,8.92c1.281-3.824,7.87-15.395,9.226-16.92"/>
<path fill="none" stroke="#97BF0D" stroke-width="4" stroke-linecap="round" stroke-linejoin="round" stroke-miterlimit="10" d="
	M4.156-310.549c0.132,2.004,4.295,6.289,6.774,8.92c1.281-3.824,7.87-15.395,9.226-16.92"/>
<path fill="none" stroke="#97BF0D" stroke-width="4" stroke-linecap="round" stroke-linejoin="round" stroke-miterlimit="10" d="
	M4.156-281.86c0.132,2.004,4.295,6.289,6.774,8.92c1.281-3.824,7.87-15.395,9.226-16.92"/>
<path fill="none" stroke="#97BF0D" stroke-width="4" stroke-linecap="round" stroke-linejoin="round" stroke-miterlimit="10" d="
	M4.156-221.146c0.132,2.004,4.295,6.289,6.774,8.92c1.281-3.824,7.87-15.395,9.226-16.92"/>
<path fill="none" stroke="#97BF0D" stroke-width="4" stroke-linecap="round" stroke-linejoin="round" stroke-miterlimit="10" d="
	M4.156-192.251c0.132,2.004,4.295,6.289,6.774,8.92c1.281-3.824,7.87-15.395,9.226-16.92"/>
<path fill="none" stroke="#97BF0D" stroke-width="4" stroke-linecap="round" stroke-linejoin="round" stroke-miterlimit="10" d="
	M4.156-250.006c0.132,2.004,4.295,6.289,6.774,8.92c1.281-3.824,7.87-15.395,9.226-16.92"/>
<circle fill="none" stroke="#1A171B" stroke-width="2" stroke-linecap="round" stroke-linejoin="round" stroke-miterlimit="10" cx="112" cy="-128" r="15"/>
<circle fill="none" stroke="#1A171B" stroke-width="2" stroke-linecap="round" stroke-linejoin="round" stroke-miterlimit="10" cx="112" cy="-136" r="3"/>
<polyline fill="none" stroke="#1A171B" stroke-width="2" stroke-linecap="round" stroke-linejoin="round" stroke-miterlimit="10" points="
	105,-131 113,-129 113,-125 117,-117 "/>
<line fill="none" stroke="#1A171B" stroke-width="2" stroke-linecap="round" stroke-linejoin="round" stroke-miterlimit="10" x1="111" y1="-123" x2="107" y2="-117"/>
<line fill="none" stroke="#1A171B" stroke-width="2" stroke-linecap="round" stroke-linejoin="round" stroke-miterlimit="10" x1="119" y1="-131" x2="116" y2="-130"/>
<circle fill="none" stroke="#1A171B" stroke-width="2" stroke-linecap="round" stroke-linejoin="round" stroke-miterlimit="10" cx="112" cy="-80" r="15"/>
<circle fill="none" stroke="#1A171B" stroke-width="2" stroke-linecap="round" stroke-linejoin="round" stroke-miterlimit="10" cx="112" cy="-88" r="3"/>
<polyline fill="none" stroke="#1A171B" stroke-width="2" stroke-linecap="round" stroke-linejoin="round" stroke-miterlimit="10" points="
	117,-69 113,-77 111,-77 107,-69 "/>
<line fill="none" stroke="#1A171B" stroke-width="2" stroke-linecap="round" stroke-linejoin="round" stroke-miterlimit="10" x1="105" y1="-83" x2="111" y2="-81"/>
<path fill="none" stroke="#1A171B" stroke-width="2" stroke-linecap="round" stroke-linejoin="round" stroke-miterlimit="10" d="
	M107-69"/>
<polyline fill="none" stroke="#1A171B" stroke-width="2" stroke-linecap="round" stroke-linejoin="round" stroke-miterlimit="10" points="
	111,-81 113,-81 119,-83 "/>
<path fill="none" stroke="#1A171B" stroke-width="2" stroke-linecap="round" stroke-linejoin="round" stroke-miterlimit="10" d="
	M169-115c0,1.104-0.896,2-2,2h-14c-1.104,0-2-0.896-2-2v-26c0-1.104,0.896-2,2-2h14c1.104,0,2,0.896,2,2V-115z"/>
<line fill="none" stroke="#1A171B" stroke-width="2" stroke-linecap="round" stroke-linejoin="round" stroke-miterlimit="10" x1="151" y1="-119" x2="165" y2="-119"/>
<line fill="none" stroke="#1A171B" stroke-width="2" stroke-linecap="round" stroke-linejoin="round" stroke-miterlimit="10" x1="159" y1="-139" x2="161" y2="-139"/>
<path fill="none" stroke="#1A171B" stroke-width="2" stroke-linecap="round" stroke-linejoin="round" stroke-miterlimit="10" d="
	M169-67c0,1.104-0.896,2-2,2h-14c-1.104,0-2-0.896-2-2v-26c0-1.104,0.896-2,2-2h14c1.104,0,2,0.896,2,2V-67z"/>
<line fill="none" stroke="#1A171B" stroke-width="2" stroke-linecap="round" stroke-linejoin="round" stroke-miterlimit="10" x1="151" y1="-71" x2="165" y2="-71"/>
<line fill="none" stroke="#1A171B" stroke-width="2" stroke-linecap="round" stroke-linejoin="round" stroke-miterlimit="10" x1="159" y1="-91" x2="161" y2="-91"/>
<polygon fill="#9C9E9F" points="154,24 166,12 166,25 154,25 "/>
<path fill="none" stroke="#1A171B" stroke-width="2" stroke-linecap="round" stroke-linejoin="round" stroke-miterlimit="10" d="
	M169,29c0,1.104-0.896,2-2,2h-14c-1.104,0-2-0.896-2-2V3c0-1.104,0.896-2,2-2h14c1.104,0,2,0.896,2,2V29z"/>
<line fill="none" stroke="#1A171B" stroke-width="2" stroke-linecap="round" stroke-linejoin="round" stroke-miterlimit="10" x1="151" y1="25" x2="165" y2="25"/>
<line fill="none" stroke="#1A171B" stroke-width="2" stroke-linecap="round" stroke-linejoin="round" stroke-miterlimit="10" x1="159" y1="5" x2="161" y2="5"/>
<path fill="none" stroke="#1A171B" stroke-width="2" stroke-linecap="round" stroke-linejoin="round" stroke-miterlimit="10" d="
	M169-19c0,1.104-0.896,2-2,2h-14c-1.104,0-2-0.896-2-2v-26c0-1.104,0.896-2,2-2h14c1.104,0,2,0.896,2,2V-19z"/>
<line fill="none" stroke="#1A171B" stroke-width="2" stroke-linecap="round" stroke-linejoin="round" stroke-miterlimit="10" x1="151" y1="-23" x2="165" y2="-23"/>
<line fill="none" stroke="#1A171B" stroke-width="2" stroke-linecap="round" stroke-linejoin="round" stroke-miterlimit="10" x1="159" y1="-43" x2="161" y2="-43"/>
<path fill="none" stroke="#1A171B" stroke-width="2" stroke-miterlimit="10" d="M216-135h-16c-3.866,0-7,3.134-7,7s3.134,7,7,7
	c1.906,0,3.632-0.764,4.894-2h6.212c1.262,1.236,2.988,2,4.894,2c3.866,0,7-3.134,7-7S219.866-135,216-135z"/>
<line fill="none" stroke="#1A171B" stroke-width="2" stroke-linecap="round" stroke-linejoin="round" stroke-miterlimit="10" x1="197" y1="-129" x2="201" y2="-129"/>
<line fill="none" stroke="#1A171B" stroke-width="2" stroke-linecap="round" stroke-linejoin="round" stroke-miterlimit="10" x1="199" y1="-127" x2="199" y2="-131"/>
<line fill="none" stroke="#1A171B" stroke-width="2" stroke-linecap="round" stroke-linejoin="round" stroke-miterlimit="10" x1="207" y1="-131" x2="209" y2="-131"/>
<circle fill="#1A171B" cx="217" cy="-131" r="1"/>
<circle fill="#1A171B" cx="219" cy="-129" r="1"/>
<circle fill="#1A171B" cx="215" cy="-129" r="1"/>
<circle fill="#1A171B" cx="217" cy="-127" r="1"/>
<path fill="none" stroke="#1A171B" stroke-width="2" stroke-miterlimit="10" d="M216-87h-16c-3.866,0-7,3.134-7,7s3.134,7,7,7
	c1.906,0,3.632-0.764,4.894-2h6.212c1.262,1.236,2.988,2,4.894,2c3.866,0,7-3.134,7-7S219.866-87,216-87z"/>
<line fill="none" stroke="#1A171B" stroke-width="2" stroke-linecap="round" stroke-linejoin="round" stroke-miterlimit="10" x1="197" y1="-81" x2="201" y2="-81"/>
<line fill="none" stroke="#1A171B" stroke-width="2" stroke-linecap="round" stroke-linejoin="round" stroke-miterlimit="10" x1="199" y1="-79" x2="199" y2="-83"/>
<line fill="none" stroke="#1A171B" stroke-width="2" stroke-linecap="round" stroke-linejoin="round" stroke-miterlimit="10" x1="207" y1="-83" x2="209" y2="-83"/>
<circle fill="#1A171B" cx="215" cy="-81" r="1"/>
<circle fill="#1A171B" cx="219" cy="-79" r="1"/>
<path fill="none" stroke="#1A171B" stroke-width="2" stroke-linecap="round" stroke-linejoin="round" stroke-miterlimit="10" d="
	M222.88-154.793l-1.961-13.003c0-0.004-0.001-0.008-0.001-0.012l-0.001-0.005l0,0C220.54-169.632,218.93-171,217-171h-18
	c-1.93,0-3.54,1.368-3.917,3.186l0,0l-0.001,0.005c0,0.004-0.001,0.008-0.001,0.012l-1.961,13.003
	c-0.07,0.254-0.12,0.517-0.12,0.793c0,1.657,1.343,3,3,3c1.017,0,1.912-0.509,2.455-1.283l0.002,0.001l0.005-0.011
	c0.136-0.196,0.245-0.41,0.332-0.636L203-161h10l4.206,8.071c0.087,0.226,0.195,0.44,0.332,0.636l0.005,0.011l0.002-0.001
	c0.542,0.774,1.438,1.283,2.455,1.283c1.657,0,3-1.343,3-3C223-154.276,222.95-154.539,222.88-154.793z"/>
<rect x="200" y="-201" fill="none" stroke="#1A171B" stroke-width="2" stroke-linecap="round" stroke-linejoin="round" stroke-miterlimit="10" width="18" height="10"/>
<circle fill="none" stroke="#1A171B" stroke-width="2" stroke-linecap="round" stroke-linejoin="round" stroke-miterlimit="10" cx="197" cy="-184" r="3"/>
<circle fill="none" stroke="#1A171B" stroke-width="2" stroke-linecap="round" stroke-linejoin="round" stroke-miterlimit="10" cx="200" cy="-197" r="4"/>
<line fill="none" stroke="#1A171B" stroke-width="2" stroke-linecap="round" stroke-linejoin="round" stroke-miterlimit="10" x1="196.083" y1="-197.814" x2="194" y2="-184"/>
<line fill="none" stroke="#1A171B" stroke-width="2" stroke-linecap="round" stroke-linejoin="round" stroke-miterlimit="10" x1="204" y1="-191" x2="199.457" y2="-182.282"/>
<circle fill="none" stroke="#1A171B" stroke-width="2" stroke-linecap="round" stroke-linejoin="round" stroke-miterlimit="10" cx="221" cy="-184" r="3"/>
<circle fill="none" stroke="#1A171B" stroke-width="2" stroke-linecap="round" stroke-linejoin="round" stroke-miterlimit="10" cx="218" cy="-197" r="4"/>
<line fill="none" stroke="#1A171B" stroke-width="2" stroke-linecap="round" stroke-linejoin="round" stroke-miterlimit="10" x1="221.917" y1="-197.814" x2="224" y2="-184"/>
<line fill="none" stroke="#1A171B" stroke-width="2" stroke-linecap="round" stroke-linejoin="round" stroke-miterlimit="10" x1="214" y1="-191" x2="218.543" y2="-182.282"/>
<path fill="none" stroke="#1A171B" stroke-width="2" stroke-linecap="round" stroke-linejoin="round" stroke-miterlimit="10" d="
	M222.88-24.793l-1.961-13.003c0-0.004-0.001-0.008-0.001-0.012l-0.001-0.005l0,0.001C220.54-39.632,218.93-41,217-41h-18
	c-1.93,0-3.54,1.368-3.917,3.187l0-0.001l-0.001,0.005c0,0.004-0.001,0.008-0.001,0.012l-1.961,13.003
	C193.05-24.539,193-24.276,193-24c0,1.657,1.343,3,3,3c1.017,0,1.912-0.509,2.455-1.283l0.002,0.001l0.015-0.021
	c0.009-0.014,0.019-0.027,0.028-0.041L203-29h10l4.5,6.656c0.009,0.014,0.019,0.027,0.028,0.041l0.015,0.021l0.002-0.001
	C218.088-21.509,218.983-21,220-21c1.657,0,3-1.343,3-3C223-24.276,222.95-24.539,222.88-24.793z"/>
<circle fill="none" stroke="#1A171B" stroke-width="2" stroke-linecap="round" stroke-linejoin="round" stroke-miterlimit="10" cx="201" cy="-35" r="2"/>
<line fill="none" stroke="#1A171B" stroke-width="2" stroke-linecap="round" stroke-linejoin="round" stroke-miterlimit="10" x1="207" y1="-37" x2="209" y2="-37"/>
<circle fill="#1A171B" cx="215" cy="-37" r="1"/>
<circle fill="#1A171B" cx="217" cy="-35" r="1"/>
<circle fill="#1A171B" cx="213" cy="-35" r="1"/>
<circle fill="#1A171B" cx="215" cy="-33" r="1"/>
<circle fill="none" stroke="#1A171B" stroke-width="2" stroke-linecap="round" stroke-linejoin="round" stroke-miterlimit="10" cx="201" cy="61" r="2"/>
<line fill="none" stroke="#1A171B" stroke-width="2" stroke-linecap="round" stroke-linejoin="round" stroke-miterlimit="10" x1="207" y1="59" x2="209" y2="59"/>
<circle fill="#1A171B" cx="215" cy="59" r="1"/>
<circle fill="#1A171B" cx="217" cy="61" r="1"/>
<circle fill="#1A171B" cx="213" cy="61" r="1"/>
<circle fill="#1A171B" cx="215" cy="63" r="1"/>
<path fill="#9C9E9F" d="M198.455,121.717l0.002,0.001l0.015-0.021c0.009-0.014,0.019-0.027,0.028-0.041l2.472-3.656H200
	c-1.104,0-2-0.896-2-2v-12.858c-1.464,0.379-2.608,1.553-2.917,3.045l0-0.001l-0.001,0.005c0,0.004-0.001,0.008-0.001,0.012
	l-1.961,13.003c-0.07,0.254-0.12,0.517-0.12,0.793c0,1.657,1.343,3,3,3C197.017,123,197.912,122.491,198.455,121.717z"/>
<circle fill="none" stroke="#1A171B" stroke-width="2" stroke-linecap="round" stroke-linejoin="round" stroke-miterlimit="10" cx="201" cy="109" r="2"/>
<line fill="none" stroke="#1A171B" stroke-width="2" stroke-linecap="round" stroke-linejoin="round" stroke-miterlimit="10" x1="207" y1="107" x2="209" y2="107"/>
<circle fill="#1A171B" cx="215" cy="107" r="1"/>
<circle fill="#1A171B" cx="217" cy="109" r="1"/>
<circle fill="#1A171B" cx="213" cy="109" r="1"/>
<circle fill="#1A171B" cx="215" cy="111" r="1"/>
<path fill="none" stroke="#1A171B" stroke-width="2" stroke-linecap="round" stroke-linejoin="round" stroke-miterlimit="10" d="
	M222.88,23.207l-1.961-13.003c0-0.004-0.001-0.008-0.001-0.012l-0.001-0.005l0,0.001C220.54,8.368,218.93,7,217,7h-18
	c-1.93,0-3.54,1.368-3.917,3.187l0-0.001l-0.001,0.005c0,0.004-0.001,0.008-0.001,0.012l-1.961,13.003
	C193.05,23.461,193,23.724,193,24c0,1.657,1.343,3,3,3c1.017,0,1.912-0.509,2.455-1.283l0.002,0.001l0.015-0.021
	c0.009-0.014,0.019-0.027,0.028-0.041L203,19h10l4.5,6.656c0.009,0.014,0.019,0.027,0.028,0.041l0.015,0.021l0.002-0.001
	C218.088,26.491,218.983,27,220,27c1.657,0,3-1.343,3-3C223,23.724,222.95,23.461,222.88,23.207z"/>
<circle fill="none" stroke="#1A171B" stroke-width="2" stroke-linecap="round" stroke-linejoin="round" stroke-miterlimit="10" cx="201" cy="13" r="2"/>
<line fill="none" stroke="#1A171B" stroke-width="2" stroke-linecap="round" stroke-linejoin="round" stroke-miterlimit="10" x1="207" y1="11" x2="209" y2="11"/>
<circle fill="#1A171B" cx="217" cy="13" r="1"/>
<circle fill="#1A171B" cx="213" cy="13" r="1"/>
<path fill="none" stroke="#1A171B" stroke-width="2" stroke-linecap="round" stroke-linejoin="round" stroke-miterlimit="10" d="
	M211,103h-12c-1.93,0-3.54,1.368-3.917,3.187l0-0.001l-0.001,0.005c0,0.004-0.001,0.008-0.001,0.012l-1.961,13.003
	c-0.07,0.254-0.12,0.517-0.12,0.793c0,1.657,1.343,3,3,3c1.017,0,1.912-0.509,2.455-1.283l0.002,0.001l0.015-0.021
	c0.009-0.014,0.019-0.027,0.028-0.041L203,115h10l4.5,6.656c0.009,0.014,0.019,0.027,0.028,0.041l0.015,0.021l0.002-0.001
	c0.542,0.774,1.438,1.283,2.455,1.283c1.657,0,3-1.343,3-3c0-0.276-0.05-0.539-0.12-0.793l-1.961-13.003
	c0-0.004-0.001-0.008-0.001-0.012l-0.001-0.005l0,0.001C220.54,104.368,218.93,103,217,103h-2"/>
<path fill="none" stroke="#1A171B" stroke-width="2" stroke-linecap="round" stroke-linejoin="round" stroke-miterlimit="10" d="
	M211,55h-12c-1.93,0-3.54,1.368-3.917,3.187l0-0.001l-0.001,0.005c0,0.004-0.001,0.008-0.001,0.012l-1.961,13.003
	C193.05,71.461,193,71.724,193,72c0,1.657,1.343,3,3,3c1.017,0,1.912-0.509,2.455-1.283l0.002,0.001l0.015-0.021
	c0.009-0.014,0.019-0.027,0.028-0.041L203,67h10l4.5,6.656c0.009,0.014,0.019,0.027,0.028,0.041l0.015,0.021l0.002-0.001
	C218.088,74.491,218.983,75,220,75c1.657,0,3-1.343,3-3c0-0.276-0.05-0.539-0.12-0.793l-1.961-13.003
	c0-0.004-0.001-0.008-0.001-0.012l-0.001-0.005l0,0.001C220.54,56.368,218.93,55,217,55h-2"/>
<path fill="none" stroke="#1A171B" stroke-width="2" stroke-linecap="round" stroke-linejoin="round" stroke-miterlimit="10" d="
	M269-134c0-2.761-2.239-5-5-5c-1.132,0-2.165,0.391-3.002,1.025c0-0.009,0.002-0.017,0.002-0.025c0-2.761-2.239-5-5-5s-5,2.239-5,5
	c0,0.008,0.002,0.016,0.002,0.025C250.165-138.609,249.132-139,248-139c-2.761,0-5,2.239-5,5c0,2.419,1.718,4.436,4,4.899V-119h18
	v-10.101C267.282-129.564,269-131.581,269-134z"/>
<polyline fill="none" stroke="#1A171B" stroke-width="2" stroke-linecap="round" stroke-linejoin="round" stroke-miterlimit="10" points="
	265,-119 265,-113 247,-113 247,-119 "/>
<circle fill="none" stroke="#1A171B" stroke-width="2" stroke-linecap="round" stroke-linejoin="round" stroke-miterlimit="10" cx="256" cy="-178" r="5"/>
<circle fill="none" stroke="#1A171B" stroke-width="2" stroke-linecap="round" stroke-linejoin="round" stroke-miterlimit="10" cx="248" cy="-174" r="5"/>
<circle fill="none" stroke="#1A171B" stroke-width="2" stroke-linecap="round" stroke-linejoin="round" stroke-miterlimit="10" cx="264" cy="-174" r="5"/>
<rect x="247" y="-175" fill="none" stroke="#1A171B" stroke-width="2" stroke-linecap="round" stroke-linejoin="round" stroke-miterlimit="10" width="18" height="16"/>
<rect x="247" y="-159" fill="none" stroke="#1A171B" stroke-width="2" stroke-linecap="round" stroke-linejoin="round" stroke-miterlimit="10" width="18" height="6"/>
<path fill="none" stroke="#1A171B" stroke-width="2" stroke-linecap="round" stroke-linejoin="round" stroke-miterlimit="10" d="
	M271-83c0-3.313-2.687-6-6-6c-1.122,0-2.169,0.314-3.067,0.85C261.973-88.428,262-88.71,262-89c0-3.313-2.687-6-6-6s-6,2.687-6,6
	c0,0.29,0.027,0.572,0.067,0.85C249.169-88.686,248.122-89,247-89c-3.313,0-6,2.687-6,6c0,2.785,1.901,5.121,4.475,5.797L247-65h18
	l1.525-12.203C269.099-77.879,271-80.215,271-83z"/>
<path fill="none" stroke="#1A171B" stroke-width="2" stroke-linecap="round" stroke-linejoin="round" stroke-miterlimit="10" d="
	M269-38c0-2.761-2.239-5-5-5c-1.132,0-2.165,0.391-3.002,1.025c0-0.009,0.002-0.017,0.002-0.025c0-2.761-2.239-5-5-5s-5,2.239-5,5
	c0,0.008,0.002,0.016,0.002,0.025C250.165-42.609,249.132-43,248-43c-2.761,0-5,2.239-5,5c0,1.959,1.138,3.639,2.78,4.458L247-25h18
	l1.22-8.542C267.862-34.361,269-36.041,269-38z"/>
<rect x="247" y="-25" fill="none" stroke="#1A171B" stroke-width="2" stroke-linecap="round" stroke-linejoin="round" stroke-miterlimit="10" width="18" height="8"/>
<path fill="none" stroke="#1A171B" stroke-width="2" stroke-linecap="round" stroke-linejoin="round" stroke-miterlimit="10" d="
	M265,71l1.22-8.542c1.642-0.82,2.78-2.499,2.78-4.458c0-2.761-2.239-5-5-5c-1.132,0-2.165,0.391-3.002,1.025
	c0-0.009,0.002-0.017,0.002-0.025c0-2.761-2.239-5-5-5s-5,2.239-5,5c0,0.008,0.002,0.016,0.002,0.025
	C250.165,53.391,249.132,53,248,53c-2.761,0-5,2.239-5,5c0,1.959,1.138,3.639,2.78,4.458L247,71"/>
<path fill="none" stroke="#1A171B" stroke-width="2" stroke-linecap="round" stroke-linejoin="round" stroke-miterlimit="10" d="
	M269,11c0-3.313-2.687-6-6-6c-0.445,0-0.878,0.052-1.296,0.144C260.922,2.74,258.665,1,256,1s-4.922,1.74-5.704,4.144
	C249.878,5.052,249.445,5,249,5c-3.313,0-6,2.687-6,6c0,2.232,1.222,4.175,3.03,5.209L247,23h18l0.97-6.791
	C267.778,15.175,269,13.232,269,11z"/>
<rect x="247" y="23" fill="none" stroke="#1A171B" stroke-width="2" stroke-linecap="round" stroke-linejoin="round" stroke-miterlimit="10" width="18" height="8"/>
<polyline fill="none" stroke="#1A171B" stroke-width="2" stroke-linecap="round" stroke-linejoin="round" stroke-miterlimit="10" points="
	259,71 247,71 247,79 265,79 265,71 263,71 "/>
<polygon fill="#9C9E9F" points="249,112 250,119 250,127 256,127 256,119 255,112 "/>
<path fill="none" stroke="#1A171B" stroke-width="2" stroke-linecap="round" stroke-linejoin="round" stroke-miterlimit="10" d="
	M265,119l1.22-8.542c1.642-0.82,2.78-2.499,2.78-4.458c0-2.761-2.239-5-5-5c-1.132,0-2.165,0.391-3.002,1.025
	c0-0.009,0.002-0.017,0.002-0.025c0-2.761-2.239-5-5-5s-5,2.239-5,5c0,0.008,0.002,0.016,0.002,0.025
	C250.165,101.391,249.132,101,248,101c-2.761,0-5,2.239-5,5c0,1.959,1.138,3.639,2.78,4.458L247,119"/>
<polyline fill="none" stroke="#1A171B" stroke-width="2" stroke-linecap="round" stroke-linejoin="round" stroke-miterlimit="10" points="
	259,119 247,119 247,127 265,127 265,119 263,119 "/>
<polygon fill="none" stroke="#1A171B" stroke-width="2" stroke-linecap="round" stroke-linejoin="round" stroke-miterlimit="10" points="
	306,-121 303,-121 303,-113 306,-115 309,-113 309,-121 "/>
<path fill="none" stroke="#1A171B" stroke-width="2" stroke-linecap="round" stroke-linejoin="round" stroke-miterlimit="10" d="
	M309-117h4v-8h-16c-2.209,0-4,1.791-4,4s1.791,4,4,4h6"/>
<line fill="none" stroke="#1A171B" stroke-width="2" stroke-linecap="round" stroke-linejoin="round" stroke-miterlimit="10" x1="299" y1="-121" x2="313" y2="-121"/>
<rect x="295" y="-183" fill="none" stroke="#1A171B" stroke-width="2" stroke-linecap="round" stroke-linejoin="round" stroke-miterlimit="10" width="18" height="26"/>
<rect x="295" y="-183" fill="none" stroke="#1A171B" stroke-width="2" stroke-linecap="round" stroke-linejoin="round" stroke-miterlimit="10" width="18" height="18"/>
<polygon fill="none" stroke="#1A171B" stroke-width="2" stroke-linecap="round" stroke-linejoin="round" stroke-miterlimit="10" points="
	306,-161 303,-161 303,-153 306,-155 309,-153 309,-161 "/>
<circle fill="none" stroke="#1A171B" stroke-width="2" stroke-linecap="round" stroke-linejoin="round" stroke-miterlimit="10" cx="299" cy="-161" r="4"/>
<rect x="299" y="-165" fill="none" stroke="#1A171B" stroke-width="2" stroke-linecap="round" stroke-linejoin="round" stroke-miterlimit="10" width="14" height="8"/>
<circle fill="none" stroke="#1A171B" stroke-width="2" stroke-linecap="round" stroke-linejoin="round" stroke-miterlimit="10" cx="299" cy="-179" r="4"/>
<path fill="none" stroke="#1A171B" stroke-width="2" stroke-linecap="round" stroke-linejoin="round" stroke-miterlimit="10" d="
	M313-125v-14v-4h-16c-2.209,0-4,1.791-4,4v18"/>
<line fill="none" stroke="#1A171B" stroke-width="2" stroke-linecap="round" stroke-linejoin="round" stroke-miterlimit="10" x1="297" y1="-125" x2="297" y2="-139"/>
<path fill="none" stroke="#1A171B" stroke-width="2" stroke-linecap="round" stroke-linejoin="round" stroke-miterlimit="10" d="
	M309-67h6v-8h-18c-2.209,0-4,1.791-4,4s1.791,4,4,4h2"/>
<rect x="303" y="-71" fill="none" stroke="#1A171B" stroke-width="2" stroke-linecap="round" stroke-linejoin="round" stroke-miterlimit="10" width="6" height="6"/>
<line fill="none" stroke="#1A171B" stroke-width="2" stroke-linecap="round" stroke-linejoin="round" stroke-miterlimit="10" x1="297" y1="-76" x2="297" y2="-89"/>
<line fill="none" stroke="#1A171B" stroke-width="2" stroke-linecap="round" stroke-linejoin="round" stroke-miterlimit="10" x1="315" y1="-71" x2="299" y2="-71"/>
<path fill="none" stroke="#1A171B" stroke-width="2" stroke-linecap="round" stroke-linejoin="round" stroke-miterlimit="10" d="
	M311-21h4v-8h-18c-2.209,0-4,1.791-4,4s1.791,4,4,4h8"/>
<path fill="none" stroke="#1A171B" stroke-width="2" stroke-linecap="round" stroke-linejoin="round" stroke-miterlimit="10" d="
	M315-29v-18h-18c-2.209,0-4,1.791-4,4v18"/>
<line fill="none" stroke="#1A171B" stroke-width="2" stroke-linecap="round" stroke-linejoin="round" stroke-miterlimit="10" x1="297" y1="-30" x2="297" y2="-41"/>
<line fill="none" stroke="#1A171B" stroke-width="2" stroke-linecap="round" stroke-linejoin="round" stroke-miterlimit="10" x1="315" y1="-25" x2="299" y2="-25"/>
<polygon fill="none" stroke="#1A171B" stroke-width="2" stroke-linecap="round" stroke-linejoin="round" stroke-miterlimit="10" points="
	308,-25 305,-25 305,-17 308,-19 311,-17 311,-25 "/>
<path fill="none" stroke="#1A171B" stroke-width="2" stroke-linecap="round" stroke-linejoin="round" stroke-miterlimit="10" d="
	M293-71v-20c0-2.209,1.791-4,4-4h1h17v20"/>
<path fill="none" stroke="#1A171B" stroke-width="2" stroke-linecap="round" stroke-linejoin="round" stroke-miterlimit="10" d="
	M309,29h6v-8h-18c-2.209,0-4,1.791-4,4s1.791,4,4,4h2"/>
<rect x="303" y="25" fill="none" stroke="#1A171B" stroke-width="2" stroke-linecap="round" stroke-linejoin="round" stroke-miterlimit="10" width="6" height="6"/>
<line fill="none" stroke="#1A171B" stroke-width="2" stroke-linecap="round" stroke-linejoin="round" stroke-miterlimit="10" x1="297" y1="20" x2="297" y2="7"/>
<line fill="none" stroke="#1A171B" stroke-width="2" stroke-linecap="round" stroke-linejoin="round" stroke-miterlimit="10" x1="315" y1="25" x2="299" y2="25"/>
<path fill="none" stroke="#1A171B" stroke-width="2" stroke-linecap="round" stroke-linejoin="round" stroke-miterlimit="10" d="
	M293,25V5c0-2.209,1.791-4,4-4h18v20"/>
<path fill="#9C9E9F" d="M298,69V56h-1c-2.209,0-4,1.791-4,4v13c0,2.209,1.791,4,4,4h2h4v-8H298z"/>
<path fill="none" stroke="#1A171B" stroke-width="2" stroke-linecap="round" stroke-linejoin="round" stroke-miterlimit="10" d="
	M309,77h6v-8h-18c-2.209,0-4,1.791-4,4s1.791,4,4,4h2"/>
<rect x="303" y="73" fill="none" stroke="#1A171B" stroke-width="2" stroke-linecap="round" stroke-linejoin="round" stroke-miterlimit="10" width="6" height="6"/>
<line fill="none" stroke="#1A171B" stroke-width="2" stroke-linecap="round" stroke-linejoin="round" stroke-miterlimit="10" x1="297" y1="68" x2="297" y2="55"/>
<line fill="none" stroke="#1A171B" stroke-width="2" stroke-linecap="round" stroke-linejoin="round" stroke-miterlimit="10" x1="315" y1="73" x2="299" y2="73"/>
<path fill="none" stroke="#1A171B" stroke-width="2" stroke-linecap="round" stroke-linejoin="round" stroke-miterlimit="10" d="
	M293,73V53c0-2.209,1.791-4,4-4h18v20"/>
<rect x="337" y="-139" fill="none" stroke="#1A171B" stroke-width="2" stroke-linecap="round" stroke-linejoin="round" stroke-miterlimit="10" width="30" height="22"/>
<polyline fill="none" stroke="#1A171B" stroke-width="2" stroke-linecap="round" stroke-linejoin="round" stroke-miterlimit="10" points="
	367,-139 352,-125 337,-139 "/>
<line fill="none" stroke="#1A171B" stroke-width="2" stroke-linecap="round" stroke-linejoin="round" stroke-miterlimit="10" x1="355.213" y1="-128.001" x2="367" y2="-117"/>
<line fill="none" stroke="#1A171B" stroke-width="2" stroke-linecap="round" stroke-linejoin="round" stroke-miterlimit="10" x1="337" y1="-117" x2="348.786" y2="-128"/>
<rect x="337" y="-91" fill="none" stroke="#1A171B" stroke-width="2" stroke-linecap="round" stroke-linejoin="round" stroke-miterlimit="10" width="30" height="22"/>
<polyline fill="none" stroke="#1A171B" stroke-width="2" stroke-linecap="round" stroke-linejoin="round" stroke-miterlimit="10" points="
	367,-91 352,-77 337,-91 "/>
<line fill="none" stroke="#1A171B" stroke-width="2" stroke-linecap="round" stroke-linejoin="round" stroke-miterlimit="10" x1="357.717" y1="-77.665" x2="367" y2="-69"/>
<line fill="none" stroke="#1A171B" stroke-width="2" stroke-linecap="round" stroke-linejoin="round" stroke-miterlimit="10" x1="337" y1="-69" x2="346.286" y2="-77.667"/>
<rect x="337" y="53" fill="none" stroke="#1A171B" stroke-width="2" stroke-linecap="round" stroke-linejoin="round" stroke-miterlimit="10" width="30" height="22"/>
<polyline fill="none" stroke="#1A171B" stroke-width="2" stroke-linecap="round" stroke-linejoin="round" stroke-miterlimit="10" points="
	360.036,59.5 352,67 337,53 "/>
<line fill="none" stroke="#1A171B" stroke-width="2" stroke-linecap="round" stroke-linejoin="round" stroke-miterlimit="10" x1="367" y1="53" x2="363.25" y2="56.5"/>
<line fill="none" stroke="#1A171B" stroke-width="2" stroke-linecap="round" stroke-linejoin="round" stroke-miterlimit="10" x1="357.717" y1="66.335" x2="367" y2="75"/>
<line fill="none" stroke="#1A171B" stroke-width="2" stroke-linecap="round" stroke-linejoin="round" stroke-miterlimit="10" x1="337" y1="75" x2="346.286" y2="66.333"/>
<rect x="337" y="5" fill="none" stroke="#1A171B" stroke-width="2" stroke-linecap="round" stroke-linejoin="round" stroke-miterlimit="10" width="30" height="22"/>
<polyline fill="none" stroke="#1A171B" stroke-width="2" stroke-linecap="round" stroke-linejoin="round" stroke-miterlimit="10" points="
	356,15.267 352,19 337,5 "/>
<line fill="none" stroke="#1A171B" stroke-width="2" stroke-linecap="round" stroke-linejoin="round" stroke-miterlimit="10" x1="367" y1="5" x2="359.071" y2="12.4"/>
<line fill="none" stroke="#1A171B" stroke-width="2" stroke-linecap="round" stroke-linejoin="round" stroke-miterlimit="10" x1="357.717" y1="18.335" x2="367" y2="27"/>
<line fill="none" stroke="#1A171B" stroke-width="2" stroke-linecap="round" stroke-linejoin="round" stroke-miterlimit="10" x1="337" y1="27" x2="346.286" y2="18.333"/>
<rect x="337" y="-43" fill="none" stroke="#1A171B" stroke-width="2" stroke-linecap="round" stroke-linejoin="round" stroke-miterlimit="10" width="30" height="22"/>
<polyline fill="none" stroke="#1A171B" stroke-width="2" stroke-linecap="round" stroke-linejoin="round" stroke-miterlimit="10" points="
	367,-43 352,-29 337,-43 "/>
<line fill="none" stroke="#1A171B" stroke-width="2" stroke-linecap="round" stroke-linejoin="round" stroke-miterlimit="10" x1="358.212" y1="-29.202" x2="367" y2="-21"/>
<line fill="none" stroke="#1A171B" stroke-width="2" stroke-linecap="round" stroke-linejoin="round" stroke-miterlimit="10" x1="337" y1="-21" x2="345.786" y2="-29.2"/>
<rect x="337" y="101" fill="none" stroke="#1A171B" stroke-width="2" stroke-linecap="round" stroke-linejoin="round" stroke-miterlimit="10" width="30" height="22"/>
<polyline fill="none" stroke="#1A171B" stroke-width="2" stroke-linecap="round" stroke-linejoin="round" stroke-miterlimit="10" points="
	367,101 352,115 337,101 "/>
<line fill="none" stroke="#1A171B" stroke-width="2" stroke-linecap="round" stroke-linejoin="round" stroke-miterlimit="10" x1="358.212" y1="114.798" x2="367" y2="123"/>
<line fill="none" stroke="#1A171B" stroke-width="2" stroke-linecap="round" stroke-linejoin="round" stroke-miterlimit="10" x1="337" y1="123" x2="345.786" y2="114.8"/>
<polygon fill="#9C9E9F" points="340,151.8 340,171 346,171 346,157.4 "/>
<rect x="337" y="149" fill="none" stroke="#1A171B" stroke-width="2" stroke-linecap="round" stroke-linejoin="round" stroke-miterlimit="10" width="30" height="22"/>
<polyline fill="none" stroke="#1A171B" stroke-width="2" stroke-linecap="round" stroke-linejoin="round" stroke-miterlimit="10" points="
	367,149 352,163 337,149 "/>
<line fill="none" stroke="#1A171B" stroke-width="2" stroke-linecap="round" stroke-linejoin="round" stroke-miterlimit="10" x1="358.212" y1="162.798" x2="367" y2="171"/>
<line fill="none" stroke="#1A171B" stroke-width="2" stroke-linecap="round" stroke-linejoin="round" stroke-miterlimit="10" x1="337" y1="171" x2="345.786" y2="162.8"/>
<g>
	<defs>
		<circle id="SVGID_13_" cx="17" cy="-83" r="7"/>
	</defs>
	<clipPath id="SVGID_14_">
		<use xlink:href="#SVGID_13_"  overflow="visible"/>
	</clipPath>
	<g clip-path="url(#SVGID_14_)">
		<path fill="#FFFFFF" d="M7.667-90h18.666v14H7.667V-90z"/>
		<path fill="#00267F" d="M7.667-90h6.221v14H7.667V-90z"/>
		<path fill="#F31830" d="M20.112-90h6.221v14h-6.221V-90z"/>
	</g>
</g>
<rect fill="none" width="32" height="32"/>
<path fill="none" stroke="#FFFFFF" stroke-width="2" stroke-linecap="round" stroke-linejoin="round" stroke-miterlimit="10" d="
	M11,23h18c1.104,0,2-0.896,2-2V5c0-1.104-0.896-2-2-2H3C1.896,3,1,3.896,1,5v16v6l6-4"/>
<rect x="-4" y="-52" fill="#1A171B" width="40" height="40"/>
<path fill="none" stroke="#FFFFFF" stroke-width="2" stroke-linecap="round" stroke-linejoin="round" stroke-miterlimit="10" d="
	M11-25h16c1.104,0,2-0.896,2-2v-16c0-1.104-0.896-2-2-2H3c-1.104,0-2,0.896-2,2v16v6l6-4"/>
<g>
	<defs>
		<circle id="SVGID_15_" cx="25" cy="-27" r="7"/>
	</defs>
	<clipPath id="SVGID_16_">
		<use xlink:href="#SVGID_15_"  overflow="visible"/>
	</clipPath>
	<g clip-path="url(#SVGID_16_)">
		<path fill="#FFFFFF" d="M15.667-34h18.666v14H15.667V-34z"/>
		<path fill="#00267F" d="M15.667-34h6.221v14h-6.221V-34z"/>
		<path fill="#F31830" d="M28.112-34h6.221v14h-6.221V-34z"/>
	</g>
</g>
<g>
	<path fill="#FFFFFF" d="M13.528,11.021h1.656v1.44h-1.608v4.872h-1.872v-4.872h-0.996v-1.44h0.996v-0.288
		c0-0.736,0.218-1.32,0.654-1.752s1.05-0.648,1.842-0.648c0.28,0,0.546,0.03,0.798,0.09c0.252,0.06,0.462,0.146,0.63,0.258
		l-0.492,1.356C14.92,9.886,14.668,9.81,14.38,9.81c-0.568,0-0.852,0.312-0.852,0.936V11.021z"/>
	<path fill="#FFFFFF" d="M19.774,11.021c0.38-0.16,0.818-0.24,1.314-0.24v1.728c-0.208-0.016-0.348-0.024-0.42-0.024
		c-0.536,0-0.956,0.15-1.26,0.45c-0.304,0.3-0.456,0.75-0.456,1.35v3.048H17.08v-6.456h1.788v0.852
		C19.092,11.417,19.394,11.182,19.774,11.021z"/>
</g>
<rect y="48" fill="none" width="32" height="32"/>
<path fill="none" stroke="#FFFFFF" stroke-width="2" stroke-linecap="round" stroke-linejoin="round" stroke-miterlimit="10" d="
	M11,71h18c1.104,0,2-0.896,2-2V53c0-1.104-0.896-2-2-2H3c-1.104,0-2,0.896-2,2v16v6l6-4"/>
<g>
	<path fill="#FFFFFF" d="M15.22,62.633h-4.884c0.088,0.4,0.296,0.716,0.624,0.948c0.328,0.232,0.736,0.348,1.224,0.348
		c0.336,0,0.634-0.05,0.894-0.15c0.26-0.1,0.502-0.258,0.726-0.474l0.996,1.08c-0.608,0.696-1.496,1.044-2.664,1.044
		c-0.728,0-1.372-0.142-1.932-0.426c-0.56-0.284-0.992-0.678-1.296-1.182c-0.304-0.504-0.456-1.076-0.456-1.716
		c0-0.632,0.15-1.202,0.45-1.71c0.3-0.508,0.712-0.904,1.236-1.188c0.524-0.284,1.11-0.426,1.758-0.426
		c0.632,0,1.204,0.136,1.716,0.408c0.512,0.272,0.914,0.662,1.206,1.17c0.292,0.508,0.438,1.098,0.438,1.77
		C15.256,62.153,15.244,62.321,15.22,62.633z M10.84,60.558c-0.288,0.24-0.464,0.568-0.528,0.984h3.18
		c-0.064-0.408-0.24-0.734-0.528-0.978s-0.64-0.366-1.056-0.366C11.484,60.197,11.128,60.317,10.84,60.558z"/>
	<path fill="#FFFFFF" d="M22.366,59.501c0.492,0.48,0.738,1.192,0.738,2.136v3.696h-1.872v-3.408c0-0.512-0.112-0.894-0.336-1.146
		c-0.224-0.252-0.548-0.378-0.972-0.378c-0.472,0-0.848,0.146-1.128,0.438c-0.28,0.292-0.42,0.726-0.42,1.302v3.192h-1.872v-6.456
		h1.788v0.756c0.248-0.271,0.556-0.481,0.924-0.63c0.368-0.148,0.772-0.222,1.212-0.222C21.228,58.782,21.874,59.021,22.366,59.501z
		"/>
</g>
<rect y="96" fill="none" width="32" height="32"/>
<path fill="none" stroke="#FFFFFF" stroke-width="2" stroke-linecap="round" stroke-linejoin="round" stroke-miterlimit="10" d="
	M11,119h18c1.104,0,2-0.896,2-2v-16c0-1.104-0.896-2-2-2H3c-1.104,0-2,0.896-2,2v16v6l6-4"/>
<g>
	<path fill="#FFFFFF" d="M9.459,114.397l0.504-1.356c0.216,0.152,0.48,0.228,0.792,0.228c0.24,0,0.428-0.078,0.564-0.234
		c0.136-0.156,0.204-0.39,0.204-0.702v-6.456h1.872v6.444c0,0.752-0.214,1.346-0.642,1.782c-0.428,0.436-1.026,0.654-1.794,0.654
		C10.304,114.757,9.804,114.638,9.459,114.397z M11.62,104.678c-0.216-0.2-0.324-0.448-0.324-0.744s0.108-0.544,0.324-0.744
		c0.216-0.2,0.496-0.3,0.84-0.3c0.344,0,0.624,0.096,0.84,0.288c0.216,0.192,0.324,0.432,0.324,0.72c0,0.312-0.108,0.57-0.324,0.774
		c-0.216,0.204-0.496,0.306-0.84,0.306C12.116,104.978,11.835,104.877,11.62,104.678z"/>
	<path fill="#FFFFFF" d="M20.578,106.195c0.492,0.276,0.878,0.665,1.158,1.164c0.28,0.5,0.42,1.082,0.42,1.746
		s-0.14,1.246-0.42,1.746c-0.28,0.5-0.666,0.888-1.158,1.164c-0.492,0.276-1.038,0.414-1.638,0.414c-0.824,0-1.472-0.26-1.944-0.78
		v3.012h-1.872v-8.784h1.788v0.744c0.464-0.56,1.14-0.84,2.028-0.84C19.54,105.782,20.086,105.919,20.578,106.195z M19.798,110.408
		c0.308-0.324,0.462-0.758,0.462-1.302s-0.154-0.978-0.462-1.302c-0.308-0.324-0.702-0.486-1.182-0.486s-0.874,0.162-1.182,0.486
		c-0.308,0.324-0.462,0.758-0.462,1.302s0.154,0.978,0.462,1.302c0.308,0.324,0.702,0.486,1.182,0.486S19.49,110.731,19.798,110.408
		z"/>
</g>
<path fill="none" stroke="#1A171B" stroke-width="2" stroke-linecap="round" stroke-linejoin="round" stroke-miterlimit="10" d="
	M412.657-127.343c3.125-3.124,3.125-8.189,0-11.313c-3.124-3.125-8.189-3.125-11.313,0c-0.545,0.544-0.988,1.151-1.343,1.793
	c-0.355-0.642-0.798-1.249-1.343-1.793c-3.124-3.125-8.189-3.125-11.313,0c-3.125,3.124-3.125,8.189,0,11.313L400-115
	L412.657-127.343z"/>
<rect x="404" y="-122.829" transform="matrix(0.7071 0.7071 -0.7071 0.7071 33.4759 -322.4752)" fill="none" stroke="#1A171B" stroke-width="2" stroke-linecap="round" stroke-linejoin="round" stroke-miterlimit="10" width="4" height="4"/>
<path fill="none" stroke="#1A171B" stroke-width="2" stroke-linecap="round" stroke-linejoin="round" stroke-miterlimit="10" d="
	M411.42-78.237l1.236-1.106c3.125-3.124,3.125-8.189,0-11.313c-3.124-3.125-8.189-3.125-11.313,0
	c-0.545,0.544-0.988,1.151-1.343,1.793c-0.355-0.642-0.798-1.249-1.343-1.793c-3.124-3.125-8.189-3.125-11.313,0
	c-3.125,3.124-3.125,8.189,0,11.313L400-67l8.557-8.443"/>
<path fill-rule="evenodd" clip-rule="evenodd" fill="#1A171B" d="M437-142h-3c-1.104,0-2,0.896-2,2v24c0,1.104,0.896,2,2,2h3V-142z"
	/>
<path fill-rule="evenodd" clip-rule="evenodd" fill="#1A171B" d="M447.255-124.097c0-1.063-1.048-1.324-1.945-1.324h-1.573v2.745
	h1.421C446.138-122.676,447.255-122.91,447.255-124.097z"/>
<g>
	<path fill-rule="evenodd" clip-rule="evenodd" fill="#1A171B" d="M452.997-125.421h-1.269v2.8h1.214
		c1.131,0,2.166-0.275,2.166-1.435C455.107-125.214,454.073-125.421,452.997-125.421z"/>
	<path fill-rule="evenodd" clip-rule="evenodd" fill="#1A171B" d="M458-142h-19v28h19c1.104,0,2-0.896,2-2v-24
		C460-141.104,459.104-142,458-142z M447.269-117.117l-2.262-4.138h-1.269v4.138H442v-9.766h3.393c1.834,0,3.6,0.73,3.6,2.8
		c0,1.407-0.869,2.331-2.234,2.635l2.607,4.331H447.269z M453.066-121.158h-1.338v4.041h-1.738v-9.766h3.186
		c2.235,0,3.683,0.786,3.683,2.827C456.859-121.903,455.135-121.158,453.066-121.158z"/>
</g>
</svg>
