<?xml version="1.0" standalone="no"?><!-- Generator: Gravit.io --><svg xmlns="http://www.w3.org/2000/svg" xmlns:xlink="http://www.w3.org/1999/xlink" style="isolation:isolate" viewBox="0 0 32 32" width="32" height="32"><defs><clipPath id="_clipPath_wFlt5MTUo1ATVRne4V7EAttNvVnTT2Tq"><rect width="32" height="32"/></clipPath></defs><g clip-path="url(#_clipPath_wFlt5MTUo1ATVRne4V7EAttNvVnTT2Tq)"><g id="less"><path d=" M 25.542 15.818 C 26.744 16.238 27.345 16.959 27.345 17.978 C 27.345 18.649 27.096 19.182 26.598 19.576 C 26.102 19.97 25.393 20.215 24.471 20.215 C 23.548 20.215 22.695 19.948 21.91 19.509 C 21.918 19.276 21.98 19.021 22.092 18.744 C 22.205 18.467 22.339 18.247 22.492 18.086 C 23.214 18.461 23.843 18.649 24.376 18.649 C 24.628 18.649 24.823 18.607 24.959 18.522 C 25.095 18.437 25.163 18.323 25.163 18.18 C 25.163 17.911 24.954 17.709 24.539 17.575 L 23.792 17.293 C 22.663 16.882 22.099 16.211 22.099 15.28 C 22.099 14.6 22.336 14.061 22.81 13.662 C 23.284 13.264 23.924 12.921 24.728 12.921 C 25.125 12.921 25.563 12.977 26.042 13.089 C 26.521 13.201 26.914 13.477 27.221 13.628 C 27.239 13.879 27.189 14.154 27.072 14.454 C 26.955 14.754 26.81 14.967 26.638 15.092 C 25.879 14.752 25.247 14.582 24.74 14.582 C 24.559 14.582 24.423 14.622 24.327 14.703 C 24.232 14.783 24.185 14.886 24.185 15.012 C 24.185 15.226 24.357 15.396 24.701 15.522 L 25.542 15.818 L 25.542 15.818 Z " fill="rgb(246,246,246)"/><path d=" M 19.538 15.818 C 20.74 16.238 21.34 16.959 21.34 17.978 C 21.34 18.649 21.091 19.182 20.595 19.576 C 20.098 19.97 19.389 20.215 18.467 20.215 C 17.545 20.215 16.691 19.948 15.906 19.509 C 15.914 19.276 15.976 19.021 16.089 18.744 C 16.202 18.467 16.335 18.247 16.488 18.086 C 17.211 18.461 17.839 18.649 18.373 18.649 C 18.625 18.649 18.82 18.607 18.955 18.522 C 19.091 18.437 19.159 18.323 19.159 18.18 C 19.159 17.911 18.95 17.709 18.535 17.575 L 17.789 17.293 C 16.66 16.882 16.095 16.211 16.095 15.28 C 16.095 14.6 16.332 14.061 16.807 13.662 C 17.281 13.264 17.92 12.921 18.724 12.921 C 19.121 12.921 19.56 12.977 20.038 13.089 C 20.517 13.201 20.91 13.477 21.217 13.628 C 21.236 13.879 21.185 14.154 21.068 14.454 C 20.951 14.754 20.807 14.967 20.635 15.092 C 19.875 14.752 19.243 14.582 18.736 14.582 C 18.555 14.582 18.418 14.622 18.323 14.703 C 18.229 14.783 18.181 14.886 18.181 15.012 C 18.181 15.226 18.353 15.396 18.697 15.522 L 19.538 15.818 L 19.538 15.818 Z " fill="rgb(246,246,246)"/><path d=" M 15.159 15.913 C 15.159 15.501 15.094 15.121 14.963 14.771 C 14.832 14.422 14.645 14.123 14.401 13.872 C 14.157 13.621 13.861 13.425 13.513 13.281 C 13.165 13.138 12.774 12.923 12.341 12.923 C 11.826 12.923 11.376 13.156 10.992 13.335 C 10.608 13.514 10.292 13.76 10.044 14.073 C 9.795 14.387 9.61 14.756 9.488 15.181 C 9.366 15.606 9.305 16.069 9.305 16.57 C 9.305 17.089 9.354 17.568 9.454 18.007 C 9.553 18.444 9.723 18.825 9.962 19.147 C 10.202 19.469 10.513 19.72 10.897 19.898 C 11.282 20.077 11.758 20.215 12.327 20.215 C 13.375 20.215 14.261 19.911 14.984 19.401 C 14.912 18.883 14.727 18.471 14.431 18.166 C 14.061 18.305 13.735 18.404 13.451 18.465 C 13.168 18.525 12.918 18.556 12.702 18.556 C 12.27 18.556 11.959 18.446 11.771 18.224 C 11.582 18.003 11.479 17.741 11.46 17.344 L 14.984 17.344 C 15.101 16.967 15.159 16.459 15.159 15.913 L 15.159 15.913 Z  M 11.447 16.005 C 11.474 15.549 11.557 15.06 11.696 14.859 C 11.835 14.657 12.047 14.557 12.335 14.557 C 12.63 14.557 12.852 14.664 13 14.878 C 13.148 15.093 13.222 15.526 13.222 15.857 L 13.222 16.005 L 11.447 16.005 L 11.447 16.005 L 11.447 16.005 Z " fill="rgb(246,246,246)"/><path d=" M 31.063 16.899 C 30.679 17.233 30.457 17.715 30.457 18.344 L 30.457 20.689 C 30.457 21.468 30.218 22.061 29.676 22.468 C 29.136 22.875 28.506 23.077 27.786 23.096 L 27.36 23.093 L 27.36 21.925 C 27.736 21.815 27.89 21.688 28.039 21.543 C 28.31 21.298 28.518 20.899 28.518 20.346 L 28.518 18.453 C 28.528 17.81 28.578 17.306 28.812 16.942 C 29.047 16.577 29.505 16.259 30.185 15.984 C 29.433 15.64 28.929 15.191 28.672 14.637 C 28.521 14.308 28.518 13.864 28.518 13.306 L 28.518 11.57 C 28.518 10.997 28.33 10.595 28.099 10.366 C 27.949 10.216 27.775 10.097 27.359 10.006 L 27.359 8.91 C 27.867 8.915 28.124 8.909 28.42 8.91 C 28.876 8.906 29.257 9.155 29.589 9.415 C 29.951 9.699 30.208 10.084 30.359 10.568 C 30.445 10.848 30.457 11.115 30.457 11.37 L 30.457 13.377 C 30.457 14.086 30.666 14.613 31.024 14.957 C 31.226 15.157 31.511 15.34 32 15.504 L 32 16.411 C 31.567 16.531 31.295 16.694 31.063 16.899 Z " fill="rgb(246,246,246)"/><path d=" M 4.108 8.91 L 4.108 8.912 C 3.962 8.911 3.831 8.911 3.725 8.911 C 3.269 8.907 2.888 9.156 2.556 9.416 C 2.193 9.7 1.883 10.072 1.786 10.569 C 1.731 10.861 1.742 11.116 1.742 11.371 L 1.742 13.378 C 1.742 14.087 1.479 14.614 1.121 14.959 C 0.919 15.158 0.489 15.341 0 15.505 L 0 16.412 C 0.434 16.532 0.851 16.694 1.083 16.899 C 1.466 17.234 1.742 17.716 1.742 18.345 L 1.742 20.69 C 1.742 21.469 1.928 22.062 2.469 22.469 C 3.009 22.876 3.639 23.078 4.359 23.098 L 4.84 23.094 L 4.84 21.925 C 4.465 21.815 4.256 21.688 4.106 21.544 C 3.835 21.298 3.682 20.9 3.682 20.347 L 3.682 18.454 C 3.671 17.81 3.567 17.306 3.333 16.942 C 3.098 16.578 2.641 16.26 1.96 15.985 C 2.711 15.641 3.216 15.192 3.473 14.638 C 3.624 14.309 3.682 13.865 3.682 13.307 L 3.682 11.571 C 3.682 10.997 3.815 10.596 4.045 10.366 C 4.17 10.242 4.393 10.139 4.702 10.056 L 5.191 10.06 C 5.191 9.639 5.191 9.376 5.191 8.91 L 4.108 8.91 L 4.108 8.91 L 4.108 8.91 L 4.108 8.91 Z " fill="rgb(246,246,246)"/><path d=" M 8.614 18.422 L 8.248 18.422 C 7.85 18.422 7.7 18.213 7.7 17.793 L 7.7 10.068 C 7.7 9.604 7.566 9.278 7.394 9.09 C 7.222 8.902 6.924 8.904 6.5 8.904 L 5.673 8.904 L 5.576 8.902 L 5.576 8.91 L 5.575 10.06 L 5.575 18.166 C 5.575 18.811 5.72 19.283 5.977 19.583 C 6.235 19.883 6.671 20.032 7.285 20.032 C 7.71 20.032 8.194 19.988 8.736 19.898 C 8.763 19.807 8.776 19.614 8.776 19.316 C 8.776 19.018 8.722 18.721 8.614 18.422 Z " fill="rgb(246,246,246)"/></g></g></svg>