<?xml version="1.0" encoding="UTF-8" standalone="no"?>
<!-- Generator: Adobe Illustrator 15.0.2, SVG Export Plug-In . SVG Version: 6.00 Build 0)  -->

<svg xmlns="http://www.w3.org/2000/svg" viewBox="0 0 32 32">
	<path d="M 13.951,14.324 C 13.833,13.962 13.52,13.698 13.143,13.643 L 10.208,13.217 8.897,10.558 C 8.56,9.875 7.44,9.875 7.103,10.558 l -1.312,2.659 -2.935,0.426 c -0.377,0.055 -0.69,0.319 -0.808,0.681 -0.118,0.362 -0.02,0.759 0.253,1.025 l 2.124,2.07 -0.501,2.923 c -0.064,0.375 0.09,0.754 0.398,0.978 0.309,0.224 0.718,0.253 1.053,0.076 L 8,20.016 l 2.625,1.38 c 0.146,0.077 0.306,0.115 0.465,0.115 0.005,0 0.012,-10e-4 0.02,0 0.552,0 1,-0.448 1,-1 0,-0.127 -0.024,-0.25 -0.067,-0.362 l -0.468,-2.73 2.124,-2.07 c 0.272,-0.266 0.37,-0.663 0.252,-1.025 z"/>
	<path d="M 29.951,14.324 C 29.833,13.962 29.52,13.698 29.143,13.643 l -2.935,-0.426 -1.313,-2.659 c -0.336,-0.683 -1.457,-0.683 -1.793,0 l -1.313,2.659 -2.935,0.426 c -0.377,0.055 -0.689,0.319 -0.808,0.681 -0.117,0.362 -0.02,0.759 0.253,1.025 l 2.124,2.07 -0.501,2.923 c -0.064,0.375 0.09,0.754 0.397,0.978 0.31,0.224 0.718,0.253 1.054,0.076 l 2.627,-1.38 2.624,1.38 c 0.146,0.077 0.307,0.115 0.466,0.115 0.007,-10e-4 0.014,0 0.02,0 0.553,0 1,-0.448 1,-1 0,-0.127 -0.023,-0.25 -0.067,-0.362 l -0.468,-2.73 2.124,-2.07 c 0.272,-0.266 0.369,-0.663 0.252,-1.025 z"/>
</svg>